<?xml version="1.0" encoding="UTF-8" standalone="no"?><svg xmlns="http://www.w3.org/2000/svg" xmlns:xlink="http://www.w3.org/1999/xlink" contentScriptType="application/ecmascript" contentStyleType="text/css" height="167px" preserveAspectRatio="none" style="width:297px;height:167px;" version="1.1" viewBox="0 0 297 167" width="297px" zoomAndPan="magnify"><defs><filter height="300%" id="f10w7ttie7vm72" width="300%" x="-1" y="-1"><feGaussianBlur result="blurOut" stdDeviation="2.0"/><feColorMatrix in="blurOut" result="blurOut2" type="matrix" values="0 0 0 0 0 0 0 0 0 0 0 0 0 0 0 0 0 0 .4 0"/><feOffset dx="4.0" dy="4.0" in="blurOut2" result="blurOut3"/><feBlend in="SourceGraphic" in2="blurOut3" mode="normal"/></filter></defs><g><!--MD5=[802cc297657c85036adaf2526729e3b4]
class FluxBus.app.Main--><a href="Main.html" target="_top" title="Main.html" xlink:actuate="onRequest" xlink:href="Main.html" xlink:show="new" xlink:title="Main.html" xlink:type="simple"><rect codeLine="5" fill="#FEFECE" filter="url(#f10w7ttie7vm72)" height="130.7656" id="FluxBus.app.Main" style="stroke: #A80036; stroke-width: 1.5;" width="271" x="7" y="7"/><ellipse cx="108.75" cy="25.9688" fill="#ADD1B2" rx="11" ry="11" style="stroke: #A80036; stroke-width: 1.0;"/><path d="M111.7188,31.6094 Q111.1406,31.9063 110.5,32.0469 Q109.8594,32.2031 109.1563,32.2031 Q106.6563,32.2031 105.3281,30.5625 Q104.0156,28.9063 104.0156,25.7813 Q104.0156,22.6563 105.3281,21 Q106.6563,19.3438 109.1563,19.3438 Q109.8594,19.3438 110.5,19.5 Q111.1563,19.6563 111.7188,19.9531 L111.7188,22.6719 Q111.0938,22.0938 110.5,21.8281 Q109.9063,21.5469 109.2813,21.5469 Q107.9375,21.5469 107.25,22.625 Q106.5625,23.6875 106.5625,25.7813 Q106.5625,27.875 107.25,28.9531 Q107.9375,30.0156 109.2813,30.0156 Q109.9063,30.0156 110.5,29.75 Q111.0938,29.4688 111.7188,28.8906 L111.7188,31.6094 Z "/><text fill="#000000" font-family="sans-serif" font-size="14" lengthAdjust="spacingAndGlyphs" textLength="32" x="142.75" y="24.9951">Main</text><text fill="#000000" font-family="sans-serif" font-size="10" lengthAdjust="spacingAndGlyphs" textLength="59" x="129.25" y="37.5791">FluxBus.app</text><line style="stroke: #A80036; stroke-width: 1.5;" x1="8" x2="277" y1="44.9375" y2="44.9375"/><polygon fill="none" points="18,51.9375,14,57.9375,22,57.9375" style="stroke: #1963A0; stroke-width: 1.0;"/><text fill="#000000" font-family="sans-serif" font-size="11" lengthAdjust="spacingAndGlyphs" text-decoration="underline" textLength="119" x="27" y="59.1479">rides: List&lt;Busride&gt;</text><line style="stroke: #A80036; stroke-width: 1.5;" x1="8" x2="277" y1="65.7422" y2="65.7422"/><ellipse cx="18" cy="76.7422" fill="#84BE84" rx="3" ry="3" style="stroke: #038048; stroke-width: 1.0;"/><text fill="#000000" font-family="sans-serif" font-size="11" lengthAdjust="spacingAndGlyphs" text-decoration="underline" textLength="109" x="27" y="79.9526">main(String[]): void</text><ellipse cx="18" cy="89.5469" fill="#84BE84" rx="3" ry="3" style="stroke: #038048; stroke-width: 1.0;"/><text fill="#000000" font-family="sans-serif" font-size="11" lengthAdjust="spacingAndGlyphs" text-decoration="underline" textLength="190" x="27" y="92.7573">export(List&lt;Busride&gt;, String): int</text><ellipse cx="18" cy="102.3516" fill="#84BE84" rx="3" ry="3" style="stroke: #038048; stroke-width: 1.0;"/><text fill="#000000" font-family="sans-serif" font-size="11" lengthAdjust="spacingAndGlyphs" text-decoration="underline" textLength="245" x="27" y="105.562">filter(Collection&lt;T&gt;, Matcher&lt;T&gt;): List&lt;T&gt;</text><ellipse cx="18" cy="115.1563" fill="#84BE84" rx="3" ry="3" style="stroke: #038048; stroke-width: 1.0;"/><text fill="#000000" font-family="sans-serif" font-size="11" lengthAdjust="spacingAndGlyphs" text-decoration="underline" textLength="147" x="27" y="118.3667">print(List&lt;Busride&gt;): void</text><ellipse cx="18" cy="127.9609" fill="#84BE84" rx="3" ry="3" style="stroke: #038048; stroke-width: 1.0;"/><text fill="#000000" font-family="sans-serif" font-size="11" lengthAdjust="spacingAndGlyphs" text-decoration="underline" textLength="115" x="27" y="131.1714">init(): List&lt;Busride&gt;</text></a><text fill="#888888" font-family="sans-serif" font-size="10" lengthAdjust="spacingAndGlyphs" textLength="192" x="46.5" y="154.0479">UMLDoclet 2.0.12, PlantUML 1.2020.16</text><!--MD5=[b0e7f2ea77a475b6431425d4df6489f7]
@startuml
    set namespaceSeparator none
    hide empty fields
    hide empty methods

    class "<size:14>Main\n<size:10>FluxBus.app" as FluxBus.app.Main [[Main.html]] {
        {static} ~rides: List<Busride>
        {static} +main(String[]): void
        {static} +export(List<Busride>, String): int
        {static} +filter(Collection<T>, Matcher<T>): List<T>
        {static} +print(List<Busride>): void
        {static} +init(): List<Busride>
    }

    center footer UMLDoclet 2.0.12, PlantUML 1.2020.16
@enduml

PlantUML version 1.2020.16(Sun Aug 23 22:20:43 CEST 2020)
(APACHE source distribution)
Java Runtime: OpenJDK Runtime Environment
JVM: OpenJDK 64-Bit Server VM
Default Encoding: ANSI_X3.4-1968
Language: en
Country: US
--></g></svg>