<?xml version="1.0" encoding="UTF-8" standalone="no"?><svg xmlns="http://www.w3.org/2000/svg" xmlns:xlink="http://www.w3.org/1999/xlink" contentScriptType="application/ecmascript" contentStyleType="text/css" height="210px" preserveAspectRatio="none" style="width:342px;height:210px;" version="1.1" viewBox="0 0 342 210" width="342px" zoomAndPan="magnify"><defs><filter height="300%" id="f16x0dew3a3zdf" width="300%" x="-1" y="-1"><feGaussianBlur result="blurOut" stdDeviation="2.0"/><feColorMatrix in="blurOut" result="blurOut2" type="matrix" values="0 0 0 0 0 0 0 0 0 0 0 0 0 0 0 0 0 0 .4 0"/><feOffset dx="4.0" dy="4.0" in="blurOut2" result="blurOut3"/><feBlend in="SourceGraphic" in2="blurOut3" mode="normal"/></filter></defs><g><!--MD5=[a68e92faabc929e8636e3ffca36186b2]
cluster FluxBus.app--><polygon fill="#FFFFFF" filter="url(#f16x0dew3a3zdf)" points="16,6,117,6,124,28.2969,320,28.2969,320,182,16,182,16,6" style="stroke: #000000; stroke-width: 1.5;"/><line style="stroke: #000000; stroke-width: 1.5;" x1="16" x2="124" y1="28.2969" y2="28.2969"/><text fill="#000000" font-family="sans-serif" font-size="14" font-weight="bold" lengthAdjust="spacingAndGlyphs" textLength="95" x="20" y="20.9951">FluxBus.app</text><!--MD5=[802cc297657c85036adaf2526729e3b4]
class FluxBus.app.Main--><a href="Main.html" target="_top" title="Main.html" xlink:actuate="onRequest" xlink:href="Main.html" xlink:show="new" xlink:title="Main.html" xlink:type="simple"><rect codeLine="3" fill="#FEFECE" filter="url(#f16x0dew3a3zdf)" height="124.8281" id="FluxBus.app.Main" style="stroke: #A80036; stroke-width: 1.5;" width="271" x="32.5" y="41"/><ellipse cx="149.25" cy="57" fill="#ADD1B2" rx="11" ry="11" style="stroke: #A80036; stroke-width: 1.0;"/><path d="M152.2188,62.6406 Q151.6406,62.9375 151,63.0781 Q150.3594,63.2344 149.6563,63.2344 Q147.1563,63.2344 145.8281,61.5938 Q144.5156,59.9375 144.5156,56.8125 Q144.5156,53.6875 145.8281,52.0313 Q147.1563,50.375 149.6563,50.375 Q150.3594,50.375 151,50.5313 Q151.6563,50.6875 152.2188,50.9844 L152.2188,53.7031 Q151.5938,53.125 151,52.8594 Q150.4063,52.5781 149.7813,52.5781 Q148.4375,52.5781 147.75,53.6563 Q147.0625,54.7188 147.0625,56.8125 Q147.0625,58.9063 147.75,59.9844 Q148.4375,61.0469 149.7813,61.0469 Q150.4063,61.0469 151,60.7813 Q151.5938,60.5 152.2188,59.9219 L152.2188,62.6406 Z "/><text fill="#000000" font-family="sans-serif" font-size="12" lengthAdjust="spacingAndGlyphs" textLength="29" x="169.75" y="61.1543">Main</text><line style="stroke: #A80036; stroke-width: 1.5;" x1="33.5" x2="302.5" y1="73" y2="73"/><polygon fill="none" points="43.5,80,39.5,86,47.5,86" style="stroke: #1963A0; stroke-width: 1.0;"/><text fill="#000000" font-family="sans-serif" font-size="11" lengthAdjust="spacingAndGlyphs" text-decoration="underline" textLength="119" x="52.5" y="87.2104">rides: List&lt;Busride&gt;</text><line style="stroke: #A80036; stroke-width: 1.5;" x1="33.5" x2="302.5" y1="93.8047" y2="93.8047"/><ellipse cx="43.5" cy="104.8047" fill="#84BE84" rx="3" ry="3" style="stroke: #038048; stroke-width: 1.0;"/><text fill="#000000" font-family="sans-serif" font-size="11" lengthAdjust="spacingAndGlyphs" text-decoration="underline" textLength="109" x="52.5" y="108.0151">main(String[]): void</text><ellipse cx="43.5" cy="117.6094" fill="#84BE84" rx="3" ry="3" style="stroke: #038048; stroke-width: 1.0;"/><text fill="#000000" font-family="sans-serif" font-size="11" lengthAdjust="spacingAndGlyphs" text-decoration="underline" textLength="190" x="52.5" y="120.8198">export(List&lt;Busride&gt;, String): int</text><ellipse cx="43.5" cy="130.4141" fill="#84BE84" rx="3" ry="3" style="stroke: #038048; stroke-width: 1.0;"/><text fill="#000000" font-family="sans-serif" font-size="11" lengthAdjust="spacingAndGlyphs" text-decoration="underline" textLength="245" x="52.5" y="133.6245">filter(Collection&lt;T&gt;, Matcher&lt;T&gt;): List&lt;T&gt;</text><ellipse cx="43.5" cy="143.2188" fill="#84BE84" rx="3" ry="3" style="stroke: #038048; stroke-width: 1.0;"/><text fill="#000000" font-family="sans-serif" font-size="11" lengthAdjust="spacingAndGlyphs" text-decoration="underline" textLength="147" x="52.5" y="146.4292">print(List&lt;Busride&gt;): void</text><ellipse cx="43.5" cy="156.0234" fill="#84BE84" rx="3" ry="3" style="stroke: #038048; stroke-width: 1.0;"/><text fill="#000000" font-family="sans-serif" font-size="11" lengthAdjust="spacingAndGlyphs" text-decoration="underline" textLength="115" x="52.5" y="159.2339">init(): List&lt;Busride&gt;</text></a><text fill="#888888" font-family="sans-serif" font-size="10" lengthAdjust="spacingAndGlyphs" textLength="192" x="66" y="197.2822">UMLDoclet 2.0.12, PlantUML 1.2020.16</text><!--MD5=[069d39bfc4c388ac36472a2fcde8867c]
@startuml
    namespace FluxBus.app {

        class Main [[Main.html]] {
            {static} ~rides: List<Busride>
            {static} +main(String[]): void
            {static} +export(List<Busride>, String): int
            {static} +filter(Collection<T>, Matcher<T>): List<T>
            {static} +print(List<Busride>): void
            {static} +init(): List<Busride>
        }

    }

    center footer UMLDoclet 2.0.12, PlantUML 1.2020.16
@enduml

PlantUML version 1.2020.16(Sun Aug 23 22:20:43 CEST 2020)
(APACHE source distribution)
Java Runtime: OpenJDK Runtime Environment
JVM: OpenJDK 64-Bit Server VM
Default Encoding: ANSI_X3.4-1968
Language: en
Country: US
--></g></svg>