<?xml version="1.0" encoding="UTF-8" standalone="no"?><svg xmlns="http://www.w3.org/2000/svg" xmlns:xlink="http://www.w3.org/1999/xlink" contentScriptType="application/ecmascript" contentStyleType="text/css" height="223px" preserveAspectRatio="none" style="width:228px;height:223px;" version="1.1" viewBox="0 0 228 223" width="228px" zoomAndPan="magnify"><defs><filter height="300%" id="fb4ft42rkik9m" width="300%" x="-1" y="-1"><feGaussianBlur result="blurOut" stdDeviation="2.0"/><feColorMatrix in="blurOut" result="blurOut2" type="matrix" values="0 0 0 0 0 0 0 0 0 0 0 0 0 0 0 0 0 0 .4 0"/><feOffset dx="4.0" dy="4.0" in="blurOut2" result="blurOut3"/><feBlend in="SourceGraphic" in2="blurOut3" mode="normal"/></filter></defs><g><!--MD5=[60ef35636d302bb94106ed5721c63d3e]
class FluxBus.util.ArrivalComparator--><a href="ArrivalComparator.html" target="_top" title="ArrivalComparator.html" xlink:actuate="onRequest" xlink:href="ArrivalComparator.html" xlink:show="new" xlink:title="ArrivalComparator.html" xlink:type="simple"><rect codeLine="5" fill="#FEFECE" filter="url(#fb4ft42rkik9m)" height="58.7422" id="FluxBus.util.ArrivalComparator" style="stroke: #A80036; stroke-width: 1.5;" width="202" x="7" y="129"/><ellipse cx="44.05" cy="147.9688" fill="#ADD1B2" rx="11" ry="11" style="stroke: #A80036; stroke-width: 1.0;"/><path d="M47.0188,153.6094 Q46.4406,153.9063 45.8,154.0469 Q45.1594,154.2031 44.4563,154.2031 Q41.9563,154.2031 40.6281,152.5625 Q39.3156,150.9063 39.3156,147.7813 Q39.3156,144.6563 40.6281,143 Q41.9563,141.3438 44.4563,141.3438 Q45.1594,141.3438 45.8,141.5 Q46.4563,141.6563 47.0188,141.9531 L47.0188,144.6719 Q46.3938,144.0938 45.8,143.8281 Q45.2063,143.5469 44.5813,143.5469 Q43.2375,143.5469 42.55,144.625 Q41.8625,145.6875 41.8625,147.7813 Q41.8625,149.875 42.55,150.9531 Q43.2375,152.0156 44.5813,152.0156 Q45.2063,152.0156 45.8,151.75 Q46.3938,151.4688 47.0188,150.8906 L47.0188,153.6094 Z "/><text fill="#000000" font-family="sans-serif" font-size="14" lengthAdjust="spacingAndGlyphs" textLength="121" x="62.95" y="146.9951">ArrivalComparator</text><text fill="#000000" font-family="sans-serif" font-size="10" lengthAdjust="spacingAndGlyphs" textLength="55" x="95.95" y="159.5791">FluxBus.util</text><line style="stroke: #A80036; stroke-width: 1.5;" x1="8" x2="208" y1="166.9375" y2="166.9375"/><ellipse cx="18" cy="177.9375" fill="#84BE84" rx="3" ry="3" style="stroke: #038048; stroke-width: 1.0;"/><text fill="#000000" font-family="sans-serif" font-size="11" lengthAdjust="spacingAndGlyphs" textLength="176" x="27" y="181.1479">compare(Busride, Busride): int</text></a><!--MD5=[ab8fa349a1e2e86ca8104897b03d4899]
class java.util.Comparator--><rect codeLine="9" fill="#FEFECE" filter="url(#fb4ft42rkik9m)" height="58.7422" id="java.util.Comparator" style="stroke: #A80036; stroke-width: 1.5;" width="200" x="8" y="10"/><ellipse cx="39.65" cy="28.9688" fill="#B4A7E5" rx="11" ry="11" style="stroke: #A80036; stroke-width: 1.0;"/><path d="M35.5719,24.7344 L35.5719,22.5781 L42.9625,22.5781 L42.9625,24.7344 L40.4938,24.7344 L40.4938,32.8125 L42.9625,32.8125 L42.9625,34.9688 L35.5719,34.9688 L35.5719,32.8125 L38.0406,32.8125 L38.0406,24.7344 L35.5719,24.7344 Z "/><text fill="#000000" font-family="sans-serif" font-size="14" font-style="italic" lengthAdjust="spacingAndGlyphs" textLength="81" x="57.35" y="27.9951">Comparator</text><text fill="#000000" font-family="sans-serif" font-size="10" font-style="italic" lengthAdjust="spacingAndGlyphs" textLength="40" x="77.85" y="40.5791">java.util</text><rect fill="#FFFFFF" height="15.9688" style="stroke: #000000; stroke-width: 1.0; stroke-dasharray: 2.0,2.0;" width="48" x="163" y="7"/><text fill="#000000" font-family="sans-serif" font-size="12" font-style="italic" lengthAdjust="spacingAndGlyphs" textLength="46" x="164" y="19.1387">Busride</text><line style="stroke: #A80036; stroke-width: 1.5;" x1="9" x2="207" y1="47.9375" y2="47.9375"/><ellipse cx="19" cy="58.9375" fill="#84BE84" rx="3" ry="3" style="stroke: #038048; stroke-width: 1.0;"/><text fill="#000000" font-family="sans-serif" font-size="11" font-style="italic" lengthAdjust="spacingAndGlyphs" textLength="174" x="28" y="62.1479">compare(Busride, Busride): int</text><!--MD5=[22aad84bf6e3d639f2ed924805db7ccd]
reverse link java.util.Comparator to FluxBus.util.ArrivalComparator--><path codeLine="13" d="M108,89.25 C108,102.7 108,116.86 108,128.77 " fill="none" id="java.util.Comparator-backto-FluxBus.util.ArrivalComparator" style="stroke: #A80036; stroke-width: 1.0; stroke-dasharray: 7.0,7.0;"/><polygon fill="none" points="101,89.12,108,69.12,115,89.12,101,89.12" style="stroke: #A80036; stroke-width: 1.0;"/><text fill="#888888" font-family="sans-serif" font-size="10" lengthAdjust="spacingAndGlyphs" textLength="192" x="9" y="210.0244">UMLDoclet 2.0.12, PlantUML 1.2020.16</text><!--MD5=[c386fbc133d6d58dda7a2b3528d29375]
@startuml
    set namespaceSeparator none
    hide empty fields
    hide empty methods

    class "<size:14>ArrivalComparator\n<size:10>FluxBus.util" as FluxBus.util.ArrivalComparator [[ArrivalComparator.html]] {
        +compare(Busride, Busride): int
    }

    interface "<size:14>Comparator\n<size:10>java.util" as java.util.Comparator<Busride> {
        {abstract} +compare(Busride, Busride): int
    }

    java.util.Comparator <|.. FluxBus.util.ArrivalComparator

    center footer UMLDoclet 2.0.12, PlantUML 1.2020.16
@enduml

PlantUML version 1.2020.16(Sun Aug 23 22:20:43 CEST 2020)
(APACHE source distribution)
Java Runtime: OpenJDK Runtime Environment
JVM: OpenJDK 64-Bit Server VM
Default Encoding: ANSI_X3.4-1968
Language: en
Country: US
--></g></svg>