<?xml version="1.0" encoding="UTF-8" standalone="no"?><svg xmlns="http://www.w3.org/2000/svg" xmlns:xlink="http://www.w3.org/1999/xlink" contentScriptType="application/ecmascript" contentStyleType="text/css" height="512px" preserveAspectRatio="none" style="width:822px;height:512px;" version="1.1" viewBox="0 0 822 512" width="822px" zoomAndPan="magnify"><defs><filter height="300%" id="fj6l5cbf9o07d" width="300%" x="-1" y="-1"><feGaussianBlur result="blurOut" stdDeviation="2.0"/><feColorMatrix in="blurOut" result="blurOut2" type="matrix" values="0 0 0 0 0 0 0 0 0 0 0 0 0 0 0 0 0 0 .4 0"/><feOffset dx="4.0" dy="4.0" in="blurOut2" result="blurOut3"/><feBlend in="SourceGraphic" in2="blurOut3" mode="normal"/></filter></defs><g><!--MD5=[714ae6e672ebdd24b5599f0be856fc44]
cluster FluxBus.util--><polygon fill="#FFFFFF" filter="url(#fj6l5cbf9o07d)" points="281,347,377,347,384,369.2969,716,369.2969,716,484,281,484,281,347" style="stroke: #000000; stroke-width: 1.5;"/><line style="stroke: #000000; stroke-width: 1.5;" x1="281" x2="384" y1="369.2969" y2="369.2969"/><text fill="#000000" font-family="sans-serif" font-size="14" font-weight="bold" lengthAdjust="spacingAndGlyphs" textLength="90" x="285" y="361.9951">FluxBus.util</text><!--MD5=[7db3c59d38ae5b37b484eb2df9368145]
cluster java.util--><polygon fill="#FFFFFF" filter="url(#fj6l5cbf9o07d)" points="16,6,82,6,89,28.2969,614,28.2969,614,323,16,323,16,6" style="stroke: #000000; stroke-width: 1.5;"/><line style="stroke: #000000; stroke-width: 1.5;" x1="16" x2="89" y1="28.2969" y2="28.2969"/><text fill="#000000" font-family="sans-serif" font-size="14" font-weight="bold" lengthAdjust="spacingAndGlyphs" textLength="60" x="20" y="20.9951">java.util</text><!--MD5=[d2a7bf4a91a9973fac7b8c181a9a46ba]
cluster FluxBus.provided--><polygon fill="#FFFFFF" filter="url(#fj6l5cbf9o07d)" points="638,108.5,780,108.5,787,130.7969,800,130.7969,800,220.5,638,220.5,638,108.5" style="stroke: #000000; stroke-width: 1.5;"/><line style="stroke: #000000; stroke-width: 1.5;" x1="638" x2="787" y1="130.7969" y2="130.7969"/><text fill="#000000" font-family="sans-serif" font-size="14" font-weight="bold" lengthAdjust="spacingAndGlyphs" textLength="136" x="642" y="123.4951">FluxBus.provided</text><!--MD5=[60ef35636d302bb94106ed5721c63d3e]
class FluxBus.util.ArrivalComparator--><a href="ArrivalComparator.html" target="_top" title="ArrivalComparator.html" xlink:actuate="onRequest" xlink:href="ArrivalComparator.html" xlink:show="new" xlink:title="ArrivalComparator.html" xlink:type="simple"><rect codeLine="3" fill="#FEFECE" filter="url(#fj6l5cbf9o07d)" height="60.8047" id="FluxBus.util.ArrivalComparator" style="stroke: #A80036; stroke-width: 1.5;" width="202" x="297" y="394.5"/><ellipse cx="338.1" cy="410.5" fill="#ADD1B2" rx="11" ry="11" style="stroke: #A80036; stroke-width: 1.0;"/><path d="M341.0688,416.1406 Q340.4906,416.4375 339.85,416.5781 Q339.2094,416.7344 338.5063,416.7344 Q336.0063,416.7344 334.6781,415.0938 Q333.3656,413.4375 333.3656,410.3125 Q333.3656,407.1875 334.6781,405.5313 Q336.0063,403.875 338.5063,403.875 Q339.2094,403.875 339.85,404.0313 Q340.5063,404.1875 341.0688,404.4844 L341.0688,407.2031 Q340.4438,406.625 339.85,406.3594 Q339.2563,406.0781 338.6313,406.0781 Q337.2875,406.0781 336.6,407.1563 Q335.9125,408.2188 335.9125,410.3125 Q335.9125,412.4063 336.6,413.4844 Q337.2875,414.5469 338.6313,414.5469 Q339.2563,414.5469 339.85,414.2813 Q340.4438,414 341.0688,413.4219 L341.0688,416.1406 Z "/><text fill="#000000" font-family="sans-serif" font-size="12" lengthAdjust="spacingAndGlyphs" textLength="112" x="357.9" y="414.6543">ArrivalComparator</text><line style="stroke: #A80036; stroke-width: 1.5;" x1="298" x2="498" y1="426.5" y2="426.5"/><line style="stroke: #A80036; stroke-width: 1.5;" x1="298" x2="498" y1="434.5" y2="434.5"/><ellipse cx="308" cy="445.5" fill="#84BE84" rx="3" ry="3" style="stroke: #038048; stroke-width: 1.0;"/><text fill="#000000" font-family="sans-serif" font-size="11" lengthAdjust="spacingAndGlyphs" textLength="176" x="317" y="448.7104">compare(Busride, Busride): int</text></a><!--MD5=[14948e83d8f18162a2f20d07d714126a]
class FluxBus.util.OriginMatcher--><a href="OriginMatcher.html" target="_top" title="OriginMatcher.html" xlink:actuate="onRequest" xlink:href="OriginMatcher.html" xlink:show="new" xlink:title="OriginMatcher.html" xlink:type="simple"><rect codeLine="7" fill="#FEFECE" filter="url(#fj6l5cbf9o07d)" height="86.4141" id="FluxBus.util.OriginMatcher" style="stroke: #A80036; stroke-width: 1.5;" width="166" x="534" y="382"/><ellipse cx="570.15" cy="398" fill="#ADD1B2" rx="11" ry="11" style="stroke: #A80036; stroke-width: 1.0;"/><path d="M573.1188,403.6406 Q572.5406,403.9375 571.9,404.0781 Q571.2594,404.2344 570.5563,404.2344 Q568.0563,404.2344 566.7281,402.5938 Q565.4156,400.9375 565.4156,397.8125 Q565.4156,394.6875 566.7281,393.0313 Q568.0563,391.375 570.5563,391.375 Q571.2594,391.375 571.9,391.5313 Q572.5563,391.6875 573.1188,391.9844 L573.1188,394.7031 Q572.4938,394.125 571.9,393.8594 Q571.3063,393.5781 570.6813,393.5781 Q569.3375,393.5781 568.65,394.6563 Q567.9625,395.7188 567.9625,397.8125 Q567.9625,399.9063 568.65,400.9844 Q569.3375,402.0469 570.6813,402.0469 Q571.3063,402.0469 571.9,401.7813 Q572.4938,401.5 573.1188,400.9219 L573.1188,403.6406 Z "/><text fill="#000000" font-family="sans-serif" font-size="12" lengthAdjust="spacingAndGlyphs" textLength="87" x="588.85" y="402.1543">OriginMatcher</text><line style="stroke: #A80036; stroke-width: 1.5;" x1="535" x2="699" y1="414" y2="414"/><rect fill="none" height="6" style="stroke: #C82930; stroke-width: 1.0;" width="6" x="542" y="422"/><text fill="#000000" font-family="sans-serif" font-size="11" lengthAdjust="spacingAndGlyphs" textLength="74" x="554" y="428.2104">origin: String</text><line style="stroke: #A80036; stroke-width: 1.5;" x1="535" x2="699" y1="434.8047" y2="434.8047"/><ellipse cx="545" cy="445.8047" fill="#84BE84" rx="3" ry="3" style="stroke: #038048; stroke-width: 1.0;"/><text fill="#000000" font-family="sans-serif" font-size="11" lengthAdjust="spacingAndGlyphs" textLength="121" x="554" y="449.0151">OriginMatcher(String)</text><ellipse cx="545" cy="458.6094" fill="#84BE84" rx="3" ry="3" style="stroke: #038048; stroke-width: 1.0;"/><text fill="#000000" font-family="sans-serif" font-size="11" lengthAdjust="spacingAndGlyphs" textLength="140" x="554" y="461.8198">match(Busride): boolean</text></a><!--MD5=[ab8fa349a1e2e86ca8104897b03d4899]
class java.util.Comparator--><rect codeLine="18" fill="#FEFECE" filter="url(#fj6l5cbf9o07d)" height="265.6797" id="java.util.Comparator" style="stroke: #A80036; stroke-width: 1.5;" width="565" x="32.5" y="41"/><ellipse cx="268.25" cy="57" fill="#B4A7E5" rx="11" ry="11" style="stroke: #A80036; stroke-width: 1.0;"/><path d="M264.1719,52.7656 L264.1719,50.6094 L271.5625,50.6094 L271.5625,52.7656 L269.0938,52.7656 L269.0938,60.8438 L271.5625,60.8438 L271.5625,63 L264.1719,63 L264.1719,60.8438 L266.6406,60.8438 L266.6406,52.7656 L264.1719,52.7656 Z "/><text fill="#000000" font-family="sans-serif" font-size="12" font-style="italic" lengthAdjust="spacingAndGlyphs" textLength="74" x="288.75" y="61.1543">Comparator</text><rect fill="#FFFFFF" height="15.9688" style="stroke: #000000; stroke-width: 1.0; stroke-dasharray: 2.0,2.0;" width="9" x="591.5" y="38"/><text fill="#000000" font-family="sans-serif" font-size="12" font-style="italic" lengthAdjust="spacingAndGlyphs" textLength="7" x="592.5" y="50.1387">T</text><line style="stroke: #A80036; stroke-width: 1.5;" x1="33.5" x2="596.5" y1="73" y2="73"/><line style="stroke: #A80036; stroke-width: 1.5;" x1="33.5" x2="596.5" y1="81" y2="81"/><ellipse cx="43.5" cy="92" fill="#84BE84" rx="3" ry="3" style="stroke: #038048; stroke-width: 1.0;"/><text fill="#000000" font-family="sans-serif" font-size="11" font-style="italic" lengthAdjust="spacingAndGlyphs" textLength="102" x="52.5" y="95.2104">compare(T, T): int</text><ellipse cx="43.5" cy="104.8047" fill="#84BE84" rx="3" ry="3" style="stroke: #038048; stroke-width: 1.0;"/><text fill="#000000" font-family="sans-serif" font-size="11" lengthAdjust="spacingAndGlyphs" textLength="160" x="52.5" y="108.0151">reversed(): Comparator&lt;T&gt;</text><ellipse cx="43.5" cy="117.6094" fill="#84BE84" rx="3" ry="3" style="stroke: #038048; stroke-width: 1.0;"/><text fill="#000000" font-family="sans-serif" font-size="11" lengthAdjust="spacingAndGlyphs" textLength="336" x="52.5" y="120.8198">thenComparing(Comparator&lt;? super T&gt;): Comparator&lt;T&gt;</text><ellipse cx="43.5" cy="130.4141" fill="#84BE84" rx="3" ry="3" style="stroke: #038048; stroke-width: 1.0;"/><text fill="#000000" font-family="sans-serif" font-size="11" lengthAdjust="spacingAndGlyphs" textLength="539" x="52.5" y="133.6245">thenComparing(Function&lt;? super T, ? extends U&gt;, Comparator&lt;? super U&gt;): Comparator&lt;T&gt;</text><ellipse cx="43.5" cy="143.2188" fill="#84BE84" rx="3" ry="3" style="stroke: #038048; stroke-width: 1.0;"/><text fill="#000000" font-family="sans-serif" font-size="11" lengthAdjust="spacingAndGlyphs" textLength="524" x="52.5" y="146.4292">thenComparing(Function&lt;? super T, ? extends Comparable&lt;? super U&gt;&gt;): Comparator&lt;T&gt;</text><ellipse cx="43.5" cy="156.0234" fill="#84BE84" rx="3" ry="3" style="stroke: #038048; stroke-width: 1.0;"/><text fill="#000000" font-family="sans-serif" font-size="11" lengthAdjust="spacingAndGlyphs" textLength="357" x="52.5" y="159.2339">thenComparingInt(ToIntFunction&lt;? super T&gt;): Comparator&lt;T&gt;</text><ellipse cx="43.5" cy="168.8281" fill="#84BE84" rx="3" ry="3" style="stroke: #038048; stroke-width: 1.0;"/><text fill="#000000" font-family="sans-serif" font-size="11" lengthAdjust="spacingAndGlyphs" textLength="383" x="52.5" y="172.0386">thenComparingLong(ToLongFunction&lt;? super T&gt;): Comparator&lt;T&gt;</text><ellipse cx="43.5" cy="181.6328" fill="#84BE84" rx="3" ry="3" style="stroke: #038048; stroke-width: 1.0;"/><text fill="#000000" font-family="sans-serif" font-size="11" lengthAdjust="spacingAndGlyphs" textLength="407" x="52.5" y="184.8433">thenComparingDouble(ToDoubleFunction&lt;? super T&gt;): Comparator&lt;T&gt;</text><ellipse cx="43.5" cy="194.4375" fill="#84BE84" rx="3" ry="3" style="stroke: #038048; stroke-width: 1.0;"/><text fill="#000000" font-family="sans-serif" font-size="11" lengthAdjust="spacingAndGlyphs" text-decoration="underline" textLength="380" x="52.5" y="197.6479">reverseOrder(): Comparator&lt;T extends Comparable&lt;? super T&gt;&gt;</text><ellipse cx="43.5" cy="207.2422" fill="#84BE84" rx="3" ry="3" style="stroke: #038048; stroke-width: 1.0;"/><text fill="#000000" font-family="sans-serif" font-size="11" lengthAdjust="spacingAndGlyphs" text-decoration="underline" textLength="376" x="52.5" y="210.4526">naturalOrder(): Comparator&lt;T extends Comparable&lt;? super T&gt;&gt;</text><ellipse cx="43.5" cy="220.0469" fill="#84BE84" rx="3" ry="3" style="stroke: #038048; stroke-width: 1.0;"/><text fill="#000000" font-family="sans-serif" font-size="11" lengthAdjust="spacingAndGlyphs" text-decoration="underline" textLength="301" x="52.5" y="223.2573">nullsFirst(Comparator&lt;? super T&gt;): Comparator&lt;T&gt;</text><ellipse cx="43.5" cy="232.8516" fill="#84BE84" rx="3" ry="3" style="stroke: #038048; stroke-width: 1.0;"/><text fill="#000000" font-family="sans-serif" font-size="11" lengthAdjust="spacingAndGlyphs" text-decoration="underline" textLength="300" x="52.5" y="236.062">nullsLast(Comparator&lt;? super T&gt;): Comparator&lt;T&gt;</text><ellipse cx="43.5" cy="245.6563" fill="#84BE84" rx="3" ry="3" style="stroke: #038048; stroke-width: 1.0;"/><text fill="#000000" font-family="sans-serif" font-size="11" lengthAdjust="spacingAndGlyphs" text-decoration="underline" textLength="512" x="52.5" y="248.8667">comparing(Function&lt;? super T, ? extends U&gt;, Comparator&lt;? super U&gt;): Comparator&lt;T&gt;</text><ellipse cx="43.5" cy="258.4609" fill="#84BE84" rx="3" ry="3" style="stroke: #038048; stroke-width: 1.0;"/><text fill="#000000" font-family="sans-serif" font-size="11" lengthAdjust="spacingAndGlyphs" text-decoration="underline" textLength="497" x="52.5" y="261.6714">comparing(Function&lt;? super T, ? extends Comparable&lt;? super U&gt;&gt;): Comparator&lt;T&gt;</text><ellipse cx="43.5" cy="271.2656" fill="#84BE84" rx="3" ry="3" style="stroke: #038048; stroke-width: 1.0;"/><text fill="#000000" font-family="sans-serif" font-size="11" lengthAdjust="spacingAndGlyphs" text-decoration="underline" textLength="330" x="52.5" y="274.4761">comparingInt(ToIntFunction&lt;? super T&gt;): Comparator&lt;T&gt;</text><ellipse cx="43.5" cy="284.0703" fill="#84BE84" rx="3" ry="3" style="stroke: #038048; stroke-width: 1.0;"/><text fill="#000000" font-family="sans-serif" font-size="11" lengthAdjust="spacingAndGlyphs" text-decoration="underline" textLength="356" x="52.5" y="287.2808">comparingLong(ToLongFunction&lt;? super T&gt;): Comparator&lt;T&gt;</text><ellipse cx="43.5" cy="296.875" fill="#84BE84" rx="3" ry="3" style="stroke: #038048; stroke-width: 1.0;"/><text fill="#000000" font-family="sans-serif" font-size="11" lengthAdjust="spacingAndGlyphs" text-decoration="underline" textLength="380" x="52.5" y="300.0854">comparingDouble(ToDoubleFunction&lt;? super T&gt;): Comparator&lt;T&gt;</text><!--MD5=[b505bf8d69b14eb33028c99a84c75100]
class FluxBus.provided.Matcher--><a href="../provided/Matcher.html" target="_top" title="../provided/Matcher.html" xlink:actuate="onRequest" xlink:href="../provided/Matcher.html" xlink:show="new" xlink:title="../provided/Matcher.html" xlink:type="simple"><rect codeLine="40" fill="#FEFECE" filter="url(#fj6l5cbf9o07d)" height="60.8047" id="FluxBus.provided.Matcher" style="stroke: #A80036; stroke-width: 1.5;" width="129" x="654.5" y="143.5"/><ellipse cx="685.25" cy="159.5" fill="#B4A7E5" rx="11" ry="11" style="stroke: #A80036; stroke-width: 1.0;"/><path d="M681.1719,155.2656 L681.1719,153.1094 L688.5625,153.1094 L688.5625,155.2656 L686.0938,155.2656 L686.0938,163.3438 L688.5625,163.3438 L688.5625,165.5 L681.1719,165.5 L681.1719,163.3438 L683.6406,163.3438 L683.6406,155.2656 L681.1719,155.2656 Z "/><text fill="#000000" font-family="sans-serif" font-size="12" font-style="italic" lengthAdjust="spacingAndGlyphs" textLength="51" x="702.75" y="163.6543">Matcher</text><rect fill="#FFFFFF" height="15.9688" style="stroke: #000000; stroke-width: 1.0; stroke-dasharray: 2.0,2.0;" width="9" x="777.5" y="140.5"/><text fill="#000000" font-family="sans-serif" font-size="12" font-style="italic" lengthAdjust="spacingAndGlyphs" textLength="7" x="778.5" y="152.6387">T</text><line style="stroke: #A80036; stroke-width: 1.5;" x1="655.5" x2="782.5" y1="175.5" y2="175.5"/><line style="stroke: #A80036; stroke-width: 1.5;" x1="655.5" x2="782.5" y1="183.5" y2="183.5"/><ellipse cx="665.5" cy="194.5" fill="#84BE84" rx="3" ry="3" style="stroke: #038048; stroke-width: 1.0;"/><text fill="#000000" font-family="sans-serif" font-size="11" font-style="italic" lengthAdjust="spacingAndGlyphs" textLength="103" x="674.5" y="197.7104">match(T): boolean</text></a><!--MD5=[22aad84bf6e3d639f2ed924805db7ccd]
reverse link java.util.Comparator to FluxBus.util.ArrivalComparator--><path codeLine="13" d="M365.41,326.24 C374.05,352.15 382.14,376.43 388.11,394.32 " fill="none" id="java.util.Comparator-backto-FluxBus.util.ArrivalComparator" style="stroke: #A80036; stroke-width: 1.0; stroke-dasharray: 7.0,7.0;"/><polygon fill="none" points="358.74,328.34,359.05,307.16,372.02,323.92,358.74,328.34" style="stroke: #A80036; stroke-width: 1.0;"/><!--MD5=[3d3b90e77b51fec745a02a9c0207f0cc]
reverse link FluxBus.provided.Matcher to FluxBus.util.OriginMatcher--><path codeLine="14" d="M699.21,223.31 C680.38,269.27 652.34,337.73 634.36,381.61 " fill="none" id="FluxBus.provided.Matcher-backto-FluxBus.util.OriginMatcher" style="stroke: #A80036; stroke-width: 1.0; stroke-dasharray: 7.0,7.0;"/><polygon fill="none" points="692.84,220.4,706.9,204.54,705.79,225.7,692.84,220.4" style="stroke: #A80036; stroke-width: 1.0;"/><text fill="#888888" font-family="sans-serif" font-size="10" lengthAdjust="spacingAndGlyphs" textLength="192" x="306" y="499.2822">UMLDoclet 2.0.12, PlantUML 1.2020.16</text><!--MD5=[a8cb2822519ec75570edd835483afc06]
@startuml
    namespace FluxBus.util {

        class ArrivalComparator [[ArrivalComparator.html]] {
            +compare(Busride, Busride): int
        }

        class OriginMatcher [[OriginMatcher.html]] {
            -origin: String
            +OriginMatcher(String)
            +match(Busride): boolean
        }

        java.util.Comparator <|.. ArrivalComparator
        FluxBus.provided.Matcher <|.. OriginMatcher
    }

    namespace java.util {
        interface Comparator<T> {
            {abstract} +compare(T, T): int
            +reversed(): Comparator<T>
            +thenComparing(Comparator<? super T>): Comparator<T>
            +thenComparing(Function<? super T, ? extends U>, Comparator<? super U>): Comparator<T>
            +thenComparing(Function<? super T, ? extends Comparable<? super U>>): Comparator<T>
            +thenComparingInt(ToIntFunction<? super T>): Comparator<T>
            +thenComparingLong(ToLongFunction<? super T>): Comparator<T>
            +thenComparingDouble(ToDoubleFunction<? super T>): Comparator<T>
            {static} +reverseOrder(): Comparator<T extends Comparable<? super T>>
            {static} +naturalOrder(): Comparator<T extends Comparable<? super T>>
            {static} +nullsFirst(Comparator<? super T>): Comparator<T>
            {static} +nullsLast(Comparator<? super T>): Comparator<T>
            {static} +comparing(Function<? super T, ? extends U>, Comparator<? super U>): Comparator<T>
            {static} +comparing(Function<? super T, ? extends Comparable<? super U>>): Comparator<T>
            {static} +comparingInt(ToIntFunction<? super T>): Comparator<T>
            {static} +comparingLong(ToLongFunction<? super T>): Comparator<T>
            {static} +comparingDouble(ToDoubleFunction<? super T>): Comparator<T>
        }
    }

    namespace FluxBus.provided {
        interface Matcher<T> [[../provided/Matcher.html]] {
            {abstract} +match(T): boolean
        }
    }

    center footer UMLDoclet 2.0.12, PlantUML 1.2020.16
@enduml

PlantUML version 1.2020.16(Sun Aug 23 22:20:43 CEST 2020)
(APACHE source distribution)
Java Runtime: OpenJDK Runtime Environment
JVM: OpenJDK 64-Bit Server VM
Default Encoding: ANSI_X3.4-1968
Language: en
Country: US
--></g></svg>