<?xml version="1.0" encoding="UTF-8" standalone="no"?><svg xmlns="http://www.w3.org/2000/svg" xmlns:xlink="http://www.w3.org/1999/xlink" contentScriptType="application/ecmascript" contentStyleType="text/css" height="723px" preserveAspectRatio="none" style="width:830px;height:723px;" version="1.1" viewBox="0 0 830 723" width="830px" zoomAndPan="magnify"><defs><filter height="300%" id="f6rtk02mbhh8e" width="300%" x="-1" y="-1"><feGaussianBlur result="blurOut" stdDeviation="2.0"/><feColorMatrix in="blurOut" result="blurOut2" type="matrix" values="0 0 0 0 0 0 0 0 0 0 0 0 0 0 0 0 0 0 .4 0"/><feOffset dx="4.0" dy="4.0" in="blurOut2" result="blurOut3"/><feBlend in="SourceGraphic" in2="blurOut3" mode="normal"/></filter></defs><g><!--MD5=[b3dd49a92d8279ceec78d6d9db5121be]
cluster FluxBus.entities--><polygon fill="#FFFFFF" filter="url(#f6rtk02mbhh8e)" points="16,142,147,142,154,164.2969,808,164.2969,808,695,16,695,16,142" style="stroke: #000000; stroke-width: 1.5;"/><line style="stroke: #000000; stroke-width: 1.5;" x1="16" x2="154" y1="164.2969" y2="164.2969"/><text fill="#000000" font-family="sans-serif" font-size="14" font-weight="bold" lengthAdjust="spacingAndGlyphs" textLength="125" x="20" y="156.9951">FluxBus.entities</text><!--MD5=[aa8f7b917213fcc1c2766e2d59b49067]
cluster java.lang--><polygon fill="#FFFFFF" filter="url(#f6rtk02mbhh8e)" points="353,6,428,6,435,28.2969,513,28.2969,513,118,353,118,353,6" style="stroke: #000000; stroke-width: 1.5;"/><line style="stroke: #000000; stroke-width: 1.5;" x1="353" x2="435" y1="28.2969" y2="28.2969"/><text fill="#000000" font-family="sans-serif" font-size="14" font-weight="bold" lengthAdjust="spacingAndGlyphs" textLength="69" x="357" y="20.9951">java.lang</text><!--MD5=[15848a6d73be7ef01dce418ca4cefadb]
class FluxBus.entities.Busride--><a href="Busride.html" target="_top" title="Busride.html" xlink:actuate="onRequest" xlink:href="Busride.html" xlink:show="new" xlink:title="Busride.html" xlink:type="simple"><rect codeLine="3" fill="#FEFECE" filter="url(#f6rtk02mbhh8e)" height="342.5078" id="FluxBus.entities.Busride" style="stroke: #A80036; stroke-width: 1.5;" width="320" x="273" y="177"/><ellipse cx="405.75" cy="193" fill="#A9DCDF" rx="11" ry="11" style="stroke: #A80036; stroke-width: 1.0;"/><path d="M405.8594,188.3438 L404.7031,193.4219 L407.0313,193.4219 L405.8594,188.3438 Z M404.375,186.1094 L407.3594,186.1094 L410.7188,198.5 L408.2656,198.5 L407.5,195.4375 L404.2188,195.4375 L403.4688,198.5 L401.0313,198.5 L404.375,186.1094 Z "/><text fill="#000000" font-family="sans-serif" font-size="12" font-style="italic" lengthAdjust="spacingAndGlyphs" textLength="46" x="426.25" y="197.1543">Busride</text><line style="stroke: #A80036; stroke-width: 1.5;" x1="274" x2="592" y1="209" y2="209"/><rect fill="none" height="6" style="stroke: #C82930; stroke-width: 1.0;" width="6" x="281" y="217"/><text fill="#000000" font-family="sans-serif" font-size="11" lengthAdjust="spacingAndGlyphs" textLength="75" x="293" y="223.2104">rideID: String</text><rect fill="none" height="6" style="stroke: #C82930; stroke-width: 1.0;" width="6" x="281" y="229.8047"/><text fill="#000000" font-family="sans-serif" font-size="11" lengthAdjust="spacingAndGlyphs" textLength="74" x="293" y="236.0151">origin: String</text><rect fill="none" height="6" style="stroke: #C82930; stroke-width: 1.0;" width="6" x="281" y="242.6094"/><text fill="#000000" font-family="sans-serif" font-size="11" lengthAdjust="spacingAndGlyphs" textLength="105" x="293" y="248.8198">destination: String</text><rect fill="none" height="6" style="stroke: #C82930; stroke-width: 1.0;" width="6" x="281" y="255.4141"/><text fill="#000000" font-family="sans-serif" font-size="11" lengthAdjust="spacingAndGlyphs" textLength="118" x="293" y="261.6245">departure: DateTime</text><rect fill="none" height="6" style="stroke: #C82930; stroke-width: 1.0;" width="6" x="281" y="268.2188"/><text fill="#000000" font-family="sans-serif" font-size="11" lengthAdjust="spacingAndGlyphs" textLength="98" x="293" y="274.4292">arrival: DateTime</text><rect fill="none" height="6" style="stroke: #C82930; stroke-width: 1.0;" width="6" x="281" y="281.0234"/><text fill="#000000" font-family="sans-serif" font-size="11" lengthAdjust="spacingAndGlyphs" textLength="69" x="293" y="287.2339">vehicle: Bus</text><rect fill="none" height="6" style="stroke: #C82930; stroke-width: 1.0;" width="6" x="281" y="293.8281"/><text fill="#000000" font-family="sans-serif" font-size="11" lengthAdjust="spacingAndGlyphs" textLength="81" x="293" y="300.0386">driver: Person</text><rect fill="none" height="6" style="stroke: #C82930; stroke-width: 1.0;" width="6" x="281" y="306.6328"/><text fill="#000000" font-family="sans-serif" font-size="11" lengthAdjust="spacingAndGlyphs" textLength="153" x="293" y="312.8433">passengers: Set&lt;Person&gt;</text><line style="stroke: #A80036; stroke-width: 1.5;" x1="274" x2="592" y1="319.4375" y2="319.4375"/><ellipse cx="284" cy="330.4375" fill="#84BE84" rx="3" ry="3" style="stroke: #038048; stroke-width: 1.0;"/><text fill="#000000" font-family="sans-serif" font-size="11" lengthAdjust="spacingAndGlyphs" textLength="294" x="293" y="333.6479">Busride(String, String, String, DateTime, DateTime)</text><ellipse cx="284" cy="343.2422" fill="#84BE84" rx="3" ry="3" style="stroke: #038048; stroke-width: 1.0;"/><text fill="#000000" font-family="sans-serif" font-size="11" lengthAdjust="spacingAndGlyphs" textLength="96" x="293" y="346.4526">Busride(Busride)</text><rect fill="#F24D5C" height="6" style="stroke: #C82930; stroke-width: 1.0;" width="6" x="281" y="353.0469"/><text fill="#000000" font-family="sans-serif" font-size="11" lengthAdjust="spacingAndGlyphs" textLength="224" x="293" y="359.2573">ensureNonNullNonEmpty(String): String</text><ellipse cx="284" cy="368.8516" fill="#84BE84" rx="3" ry="3" style="stroke: #038048; stroke-width: 1.0;"/><text fill="#000000" font-family="sans-serif" font-size="11" lengthAdjust="spacingAndGlyphs" textLength="115" x="293" y="372.062">setRide(String): void</text><ellipse cx="284" cy="381.6563" fill="#84BE84" rx="3" ry="3" style="stroke: #038048; stroke-width: 1.0;"/><text fill="#000000" font-family="sans-serif" font-size="11" lengthAdjust="spacingAndGlyphs" textLength="155" x="293" y="384.8667">setDestination(String): void</text><ellipse cx="284" cy="394.4609" fill="#84BE84" rx="3" ry="3" style="stroke: #038048; stroke-width: 1.0;"/><text fill="#000000" font-family="sans-serif" font-size="11" lengthAdjust="spacingAndGlyphs" textLength="125" x="293" y="397.6714">setOrigin(String): void</text><ellipse cx="284" cy="407.2656" fill="#84BE84" rx="3" ry="3" style="stroke: #038048; stroke-width: 1.0;"/><text fill="#000000" font-family="sans-serif" font-size="11" lengthAdjust="spacingAndGlyphs" textLength="168" x="293" y="410.4761">setDeparture(DateTime): void</text><ellipse cx="284" cy="420.0703" fill="#84BE84" rx="3" ry="3" style="stroke: #038048; stroke-width: 1.0;"/><text fill="#000000" font-family="sans-serif" font-size="11" lengthAdjust="spacingAndGlyphs" textLength="147" x="293" y="423.2808">setArrival(DateTime): void</text><ellipse cx="284" cy="432.875" fill="#84BE84" rx="3" ry="3" style="stroke: #038048; stroke-width: 1.0;"/><text fill="#000000" font-family="sans-serif" font-size="11" lengthAdjust="spacingAndGlyphs" textLength="140" x="293" y="436.0854">setVehicle(Bus): Busride</text><ellipse cx="284" cy="445.6797" fill="#84BE84" rx="3" ry="3" style="stroke: #038048; stroke-width: 1.0;"/><text fill="#000000" font-family="sans-serif" font-size="11" lengthAdjust="spacingAndGlyphs" textLength="131" x="293" y="448.8901">setDriver(Person): void</text><ellipse cx="284" cy="458.4844" fill="#84BE84" rx="3" ry="3" style="stroke: #038048; stroke-width: 1.0;"/><text fill="#000000" font-family="sans-serif" font-size="11" lengthAdjust="spacingAndGlyphs" textLength="122" x="293" y="461.6948">add(Person): boolean</text><ellipse cx="284" cy="471.2891" fill="#84BE84" rx="3" ry="3" style="stroke: #038048; stroke-width: 1.0;"/><text fill="#000000" font-family="sans-serif" font-size="11" lengthAdjust="spacingAndGlyphs" textLength="103" x="293" y="474.4995">getRideID(): String</text><ellipse cx="284" cy="484.0938" fill="#84BE84" rx="3" ry="3" style="stroke: #038048; stroke-width: 1.0;"/><text fill="#000000" font-family="sans-serif" font-size="11" lengthAdjust="spacingAndGlyphs" textLength="124" x="293" y="487.3042">getArrival(): DateTime</text><ellipse cx="284" cy="496.8984" fill="#84BE84" rx="3" ry="3" style="stroke: #038048; stroke-width: 1.0;"/><text fill="#000000" font-family="sans-serif" font-size="11" lengthAdjust="spacingAndGlyphs" textLength="102" x="293" y="500.1089">getOrigin(): String</text><ellipse cx="284" cy="509.7031" fill="#84BE84" rx="3" ry="3" style="stroke: #038048; stroke-width: 1.0;"/><text fill="#000000" font-family="sans-serif" font-size="11" lengthAdjust="spacingAndGlyphs" textLength="138" x="293" y="512.9136">compareTo(Busride): int</text></a><!--MD5=[aa1710a082975f3df23211202f2a20d7]
class FluxBus.entities.StandardRide--><a href="StandardRide.html" target="_top" title="StandardRide.html" xlink:actuate="onRequest" xlink:href="StandardRide.html" xlink:show="new" xlink:title="StandardRide.html" xlink:type="simple"><rect codeLine="29" fill="#FEFECE" filter="url(#f6rtk02mbhh8e)" height="86.4141" id="FluxBus.entities.StandardRide" style="stroke: #A80036; stroke-width: 1.5;" width="405" x="32.5" y="586.5"/><ellipse cx="188.25" cy="602.5" fill="#ADD1B2" rx="11" ry="11" style="stroke: #A80036; stroke-width: 1.0;"/><path d="M191.2188,608.1406 Q190.6406,608.4375 190,608.5781 Q189.3594,608.7344 188.6563,608.7344 Q186.1563,608.7344 184.8281,607.0938 Q183.5156,605.4375 183.5156,602.3125 Q183.5156,599.1875 184.8281,597.5313 Q186.1563,595.875 188.6563,595.875 Q189.3594,595.875 190,596.0313 Q190.6563,596.1875 191.2188,596.4844 L191.2188,599.2031 Q190.5938,598.625 190,598.3594 Q189.4063,598.0781 188.7813,598.0781 Q187.4375,598.0781 186.75,599.1563 Q186.0625,600.2188 186.0625,602.3125 Q186.0625,604.4063 186.75,605.4844 Q187.4375,606.5469 188.7813,606.5469 Q189.4063,606.5469 190,606.2813 Q190.5938,606 191.2188,605.4219 L191.2188,608.1406 Z "/><text fill="#000000" font-family="sans-serif" font-size="12" lengthAdjust="spacingAndGlyphs" textLength="85" x="208.75" y="606.6543">StandardRide</text><line style="stroke: #A80036; stroke-width: 1.5;" x1="33.5" x2="436.5" y1="618.5" y2="618.5"/><rect fill="none" height="6" style="stroke: #C82930; stroke-width: 1.0;" width="6" x="40.5" y="626.5"/><text fill="#000000" font-family="sans-serif" font-size="11" lengthAdjust="spacingAndGlyphs" textLength="118" x="52.5" y="632.7104">isOvernight: boolean</text><line style="stroke: #A80036; stroke-width: 1.5;" x1="33.5" x2="436.5" y1="639.3047" y2="639.3047"/><ellipse cx="43.5" cy="650.3047" fill="#84BE84" rx="3" ry="3" style="stroke: #038048; stroke-width: 1.0;"/><text fill="#000000" font-family="sans-serif" font-size="11" lengthAdjust="spacingAndGlyphs" textLength="379" x="52.5" y="653.5151">StandardRide(String, String, String, DateTime, DateTime, boolean)</text><ellipse cx="43.5" cy="663.1094" fill="#84BE84" rx="3" ry="3" style="stroke: #038048; stroke-width: 1.0;"/><text fill="#000000" font-family="sans-serif" font-size="11" lengthAdjust="spacingAndGlyphs" textLength="160" x="52.5" y="666.3198">StandardRide(StandardRide)</text></a><!--MD5=[762da352a64966c8e2d55a1215e926af]
class FluxBus.entities.Charter--><a href="Charter.html" target="_top" title="Charter.html" xlink:actuate="onRequest" xlink:href="Charter.html" xlink:show="new" xlink:title="Charter.html" xlink:type="simple"><rect codeLine="35" fill="#FEFECE" filter="url(#f6rtk02mbhh8e)" height="99.2188" id="FluxBus.entities.Charter" style="stroke: #A80036; stroke-width: 1.5;" width="319" x="472.5" y="580"/><ellipse cx="604.25" cy="596" fill="#ADD1B2" rx="11" ry="11" style="stroke: #A80036; stroke-width: 1.0;"/><path d="M607.2188,601.6406 Q606.6406,601.9375 606,602.0781 Q605.3594,602.2344 604.6563,602.2344 Q602.1563,602.2344 600.8281,600.5938 Q599.5156,598.9375 599.5156,595.8125 Q599.5156,592.6875 600.8281,591.0313 Q602.1563,589.375 604.6563,589.375 Q605.3594,589.375 606,589.5313 Q606.6563,589.6875 607.2188,589.9844 L607.2188,592.7031 Q606.5938,592.125 606,591.8594 Q605.4063,591.5781 604.7813,591.5781 Q603.4375,591.5781 602.75,592.6563 Q602.0625,593.7188 602.0625,595.8125 Q602.0625,597.9063 602.75,598.9844 Q603.4375,600.0469 604.7813,600.0469 Q605.4063,600.0469 606,599.7813 Q606.5938,599.5 607.2188,598.9219 L607.2188,601.6406 Z "/><text fill="#000000" font-family="sans-serif" font-size="12" lengthAdjust="spacingAndGlyphs" textLength="47" x="624.75" y="600.1543">Charter</text><line style="stroke: #A80036; stroke-width: 1.5;" x1="473.5" x2="790.5" y1="612" y2="612"/><rect fill="none" height="6" style="stroke: #C82930; stroke-width: 1.0;" width="6" x="480.5" y="620"/><text fill="#000000" font-family="sans-serif" font-size="11" lengthAdjust="spacingAndGlyphs" textLength="136" x="492.5" y="626.2104">includedMileage: double</text><line style="stroke: #A80036; stroke-width: 1.5;" x1="473.5" x2="790.5" y1="632.8047" y2="632.8047"/><ellipse cx="483.5" cy="643.8047" fill="#84BE84" rx="3" ry="3" style="stroke: #038048; stroke-width: 1.0;"/><text fill="#000000" font-family="sans-serif" font-size="11" lengthAdjust="spacingAndGlyphs" textLength="293" x="492.5" y="647.0151">Charter(String, String, String, DateTime, DateTime)</text><ellipse cx="483.5" cy="656.6094" fill="#84BE84" rx="3" ry="3" style="stroke: #038048; stroke-width: 1.0;"/><text fill="#000000" font-family="sans-serif" font-size="11" lengthAdjust="spacingAndGlyphs" textLength="162" x="492.5" y="659.8198">getIncludedMileage(): double</text><ellipse cx="483.5" cy="669.4141" fill="#84BE84" rx="3" ry="3" style="stroke: #038048; stroke-width: 1.0;"/><text fill="#000000" font-family="sans-serif" font-size="11" lengthAdjust="spacingAndGlyphs" textLength="185" x="492.5" y="672.6245">setIncludedMileage(double): void</text></a><!--MD5=[008d82c49f85b4d489e041917c99c847]
class java.lang.Comparable--><rect codeLine="48" fill="#FEFECE" filter="url(#f6rtk02mbhh8e)" height="60.8047" id="java.lang.Comparable" style="stroke: #A80036; stroke-width: 1.5;" width="127" x="369.5" y="41"/><ellipse cx="388.55" cy="57" fill="#B4A7E5" rx="11" ry="11" style="stroke: #A80036; stroke-width: 1.0;"/><path d="M384.4719,52.7656 L384.4719,50.6094 L391.8625,50.6094 L391.8625,52.7656 L389.3938,52.7656 L389.3938,60.8438 L391.8625,60.8438 L391.8625,63 L384.4719,63 L384.4719,60.8438 L386.9406,60.8438 L386.9406,52.7656 L384.4719,52.7656 Z "/><text fill="#000000" font-family="sans-serif" font-size="12" font-style="italic" lengthAdjust="spacingAndGlyphs" textLength="75" x="403.45" y="61.1543">Comparable</text><rect fill="#FFFFFF" height="15.9688" style="stroke: #000000; stroke-width: 1.0; stroke-dasharray: 2.0,2.0;" width="9" x="490.5" y="38"/><text fill="#000000" font-family="sans-serif" font-size="12" font-style="italic" lengthAdjust="spacingAndGlyphs" textLength="7" x="491.5" y="50.1387">T</text><line style="stroke: #A80036; stroke-width: 1.5;" x1="370.5" x2="495.5" y1="73" y2="73"/><line style="stroke: #A80036; stroke-width: 1.5;" x1="370.5" x2="495.5" y1="81" y2="81"/><ellipse cx="380.5" cy="92" fill="#84BE84" rx="3" ry="3" style="stroke: #038048; stroke-width: 1.0;"/><text fill="#000000" font-family="sans-serif" font-size="11" font-style="italic" lengthAdjust="spacingAndGlyphs" textLength="101" x="389.5" y="95.2104">compareTo(T): int</text><!--MD5=[7b3b1c78f0da3959a06c4b7820ad5c3f]
reverse link java.lang.Comparable to FluxBus.entities.Busride--><path codeLine="42" d="M433,122.46 C433,138.43 433,157.1 433,176.73 " fill="none" id="java.lang.Comparable-backto-FluxBus.entities.Busride" style="stroke: #A80036; stroke-width: 1.0; stroke-dasharray: 7.0,7.0;"/><polygon fill="none" points="426,122.19,433,102.19,440,122.19,426,122.19" style="stroke: #A80036; stroke-width: 1.0;"/><!--MD5=[095775ce187a803c2a3bb2c110a05147]
reverse link FluxBus.entities.Busride to FluxBus.entities.StandardRide--><path codeLine="43" d="M300.22,536.6 C287.24,554.89 275.13,571.95 264.96,586.28 " fill="none" id="FluxBus.entities.Busride-backto-FluxBus.entities.StandardRide" style="stroke: #A80036; stroke-width: 1.0;"/><polygon fill="none" points="294.55,532.49,311.84,520.23,305.97,540.59,294.55,532.49" style="stroke: #A80036; stroke-width: 1.0;"/><!--MD5=[a5cfb28704511435c2ce2f1a06241a1b]
reverse link FluxBus.entities.Busride to FluxBus.entities.Charter--><path codeLine="44" d="M566.58,536.78 C577.71,552.38 588.19,567.08 597.37,579.94 " fill="none" id="FluxBus.entities.Busride-backto-FluxBus.entities.Charter" style="stroke: #A80036; stroke-width: 1.0;"/><polygon fill="none" points="560.69,540.58,554.78,520.23,572.09,532.45,560.69,540.58" style="stroke: #A80036; stroke-width: 1.0;"/><text fill="#888888" font-family="sans-serif" font-size="10" lengthAdjust="spacingAndGlyphs" textLength="192" x="310" y="710.2822">UMLDoclet 2.0.12, PlantUML 1.2020.16</text><!--MD5=[0ea6b7394954d53cb9d5c573ee4bcc1a]
@startuml
    namespace FluxBus.entities {

        abstract class Busride [[Busride.html]] {
            -rideID: String
            -origin: String
            -destination: String
            -departure: DateTime
            -arrival: DateTime
            -vehicle: Bus
            -driver: Person
            -passengers: Set<Person>
            +Busride(String, String, String, DateTime, DateTime)
            +Busride(Busride)
            -ensureNonNullNonEmpty(String): String
            +setRide(String): void
            +setDestination(String): void
            +setOrigin(String): void
            +setDeparture(DateTime): void
            +setArrival(DateTime): void
            +setVehicle(Bus): Busride
            +setDriver(Person): void
            +add(Person): boolean
            +getRideID(): String
            +getArrival(): DateTime
            +getOrigin(): String
            +compareTo(Busride): int
        }

        class StandardRide [[StandardRide.html]] {
            -isOvernight: boolean
            +StandardRide(String, String, String, DateTime, DateTime, boolean)
            +StandardRide(StandardRide)
        }

        class Charter [[Charter.html]] {
            -includedMileage: double
            +Charter(String, String, String, DateTime, DateTime)
            +getIncludedMileage(): double
            +setIncludedMileage(double): void
        }

        java.lang.Comparable <|.. Busride
        Busride <|- - StandardRide
        Busride <|- - Charter
    }

    namespace java.lang {
        interface Comparable<T> {
            {abstract} +compareTo(T): int
        }
    }

    center footer UMLDoclet 2.0.12, PlantUML 1.2020.16
@enduml

PlantUML version 1.2020.16(Sun Aug 23 22:20:43 CEST 2020)
(APACHE source distribution)
Java Runtime: OpenJDK Runtime Environment
JVM: OpenJDK 64-Bit Server VM
Default Encoding: ANSI_X3.4-1968
Language: en
Country: US
--></g></svg>