<?xml version="1.0" encoding="UTF-8" standalone="no"?><svg xmlns="http://www.w3.org/2000/svg" xmlns:xlink="http://www.w3.org/1999/xlink" contentScriptType="application/ecmascript" contentStyleType="text/css" height="154px" preserveAspectRatio="none" style="width:204px;height:154px;" version="1.1" viewBox="0 0 204 154" width="204px" zoomAndPan="magnify"><defs><filter height="300%" id="f1p3htfro75b4b" width="300%" x="-1" y="-1"><feGaussianBlur result="blurOut" stdDeviation="2.0"/><feColorMatrix in="blurOut" result="blurOut2" type="matrix" values="0 0 0 0 0 0 0 0 0 0 0 0 0 0 0 0 0 0 .4 0"/><feOffset dx="4.0" dy="4.0" in="blurOut2" result="blurOut3"/><feBlend in="SourceGraphic" in2="blurOut3" mode="normal"/></filter></defs><g><!--MD5=[f95276854418c0a718b9f69c697f53f0]
class FluxBus.provided.Bus--><a href="Bus.html" target="_top" title="Bus.html" xlink:actuate="onRequest" xlink:href="Bus.html" xlink:show="new" xlink:title="Bus.html" xlink:type="simple"><rect codeLine="5" fill="#FEFECE" filter="url(#f1p3htfro75b4b)" height="117.9609" id="FluxBus.provided.Bus" style="stroke: #A80036; stroke-width: 1.5;" width="152" x="20" y="7"/><ellipse cx="51.65" cy="25.9688" fill="#ADD1B2" rx="11" ry="11" style="stroke: #A80036; stroke-width: 1.0;"/><path d="M54.6188,31.6094 Q54.0406,31.9063 53.4,32.0469 Q52.7594,32.2031 52.0563,32.2031 Q49.5563,32.2031 48.2281,30.5625 Q46.9156,28.9063 46.9156,25.7813 Q46.9156,22.6563 48.2281,21 Q49.5563,19.3438 52.0563,19.3438 Q52.7594,19.3438 53.4,19.5 Q54.0563,19.6563 54.6188,19.9531 L54.6188,22.6719 Q53.9938,22.0938 53.4,21.8281 Q52.8063,21.5469 52.1813,21.5469 Q50.8375,21.5469 50.15,22.625 Q49.4625,23.6875 49.4625,25.7813 Q49.4625,27.875 50.15,28.9531 Q50.8375,30.0156 52.1813,30.0156 Q52.8063,30.0156 53.4,29.75 Q53.9938,29.4688 54.6188,28.8906 L54.6188,31.6094 Z "/><text fill="#000000" font-family="sans-serif" font-size="14" lengthAdjust="spacingAndGlyphs" textLength="27" x="97.35" y="24.9951">Bus</text><text fill="#000000" font-family="sans-serif" font-size="10" lengthAdjust="spacingAndGlyphs" textLength="83" x="69.35" y="37.5791">FluxBus.provided</text><line style="stroke: #A80036; stroke-width: 1.5;" x1="21" x2="171" y1="44.9375" y2="44.9375"/><rect fill="none" height="6" style="stroke: #C82930; stroke-width: 1.0;" width="6" x="28" y="52.9375"/><text fill="#000000" font-family="sans-serif" font-size="11" lengthAdjust="spacingAndGlyphs" textLength="126" x="40" y="59.1479">licenceNumber: String</text><rect fill="none" height="6" style="stroke: #C82930; stroke-width: 1.0;" width="6" x="28" y="65.7422"/><text fill="#000000" font-family="sans-serif" font-size="11" lengthAdjust="spacingAndGlyphs" textLength="68" x="40" y="71.9526">capacity: int</text><line style="stroke: #A80036; stroke-width: 1.5;" x1="21" x2="171" y1="78.5469" y2="78.5469"/><ellipse cx="31" cy="89.5469" fill="#84BE84" rx="3" ry="3" style="stroke: #038048; stroke-width: 1.0;"/><text fill="#000000" font-family="sans-serif" font-size="11" lengthAdjust="spacingAndGlyphs" textLength="86" x="40" y="92.7573">Bus(String, int)</text><ellipse cx="31" cy="102.3516" fill="#84BE84" rx="3" ry="3" style="stroke: #038048; stroke-width: 1.0;"/><text fill="#000000" font-family="sans-serif" font-size="11" lengthAdjust="spacingAndGlyphs" textLength="52" x="40" y="105.562">Bus(Bus)</text><ellipse cx="31" cy="115.1563" fill="#84BE84" rx="3" ry="3" style="stroke: #038048; stroke-width: 1.0;"/><text fill="#000000" font-family="sans-serif" font-size="11" lengthAdjust="spacingAndGlyphs" textLength="96" x="40" y="118.3667">getCapactiy(): int</text></a><text fill="#888888" font-family="sans-serif" font-size="10" lengthAdjust="spacingAndGlyphs" textLength="192" x="0" y="141.2432">UMLDoclet 2.0.12, PlantUML 1.2020.16</text><!--MD5=[35fa71f9ca49c62190b41a1564d27d5a]
@startuml
    set namespaceSeparator none
    hide empty fields
    hide empty methods

    class "<size:14>Bus\n<size:10>FluxBus.provided" as FluxBus.provided.Bus [[Bus.html]] {
        -licenceNumber: String
        -capacity: int
        +Bus(String, int)
        +Bus(Bus)
        +getCapactiy(): int
    }

    center footer UMLDoclet 2.0.12, PlantUML 1.2020.16
@enduml

PlantUML version 1.2020.16(Sun Aug 23 22:20:43 CEST 2020)
(APACHE source distribution)
Java Runtime: OpenJDK Runtime Environment
JVM: OpenJDK 64-Bit Server VM
Default Encoding: ANSI_X3.4-1968
Language: en
Country: US
--></g></svg>