<?xml version="1.0" encoding="UTF-8" standalone="no"?><svg xmlns="http://www.w3.org/2000/svg" xmlns:xlink="http://www.w3.org/1999/xlink" contentScriptType="application/ecmascript" contentStyleType="text/css" height="333px" preserveAspectRatio="none" style="width:216px;height:333px;" version="1.1" viewBox="0 0 216 333" width="216px" zoomAndPan="magnify"><defs><filter height="300%" id="f59kemlhlkkaf" width="300%" x="-1" y="-1"><feGaussianBlur result="blurOut" stdDeviation="2.0"/><feColorMatrix in="blurOut" result="blurOut2" type="matrix" values="0 0 0 0 0 0 0 0 0 0 0 0 0 0 0 0 0 0 .4 0"/><feOffset dx="4.0" dy="4.0" in="blurOut2" result="blurOut3"/><feBlend in="SourceGraphic" in2="blurOut3" mode="normal"/></filter></defs><g><!--MD5=[894b71ff506f3970c835592e95bf8c75]
class FluxBus.provided.DateTime--><a href="DateTime.html" target="_top" title="DateTime.html" xlink:actuate="onRequest" xlink:href="DateTime.html" xlink:show="new" xlink:title="DateTime.html" xlink:type="simple"><rect codeLine="5" fill="#FEFECE" filter="url(#f59kemlhlkkaf)" height="169.1797" id="FluxBus.provided.DateTime" style="stroke: #A80036; stroke-width: 1.5;" width="190" x="7" y="129"/><ellipse cx="56.25" cy="147.9688" fill="#ADD1B2" rx="11" ry="11" style="stroke: #A80036; stroke-width: 1.0;"/><path d="M59.2188,153.6094 Q58.6406,153.9063 58,154.0469 Q57.3594,154.2031 56.6563,154.2031 Q54.1563,154.2031 52.8281,152.5625 Q51.5156,150.9063 51.5156,147.7813 Q51.5156,144.6563 52.8281,143 Q54.1563,141.3438 56.6563,141.3438 Q57.3594,141.3438 58,141.5 Q58.6563,141.6563 59.2188,141.9531 L59.2188,144.6719 Q58.5938,144.0938 58,143.8281 Q57.4063,143.5469 56.7813,143.5469 Q55.4375,143.5469 54.75,144.625 Q54.0625,145.6875 54.0625,147.7813 Q54.0625,149.875 54.75,150.9531 Q55.4375,152.0156 56.7813,152.0156 Q57.4063,152.0156 58,151.75 Q58.5938,151.4688 59.2188,150.8906 L59.2188,153.6094 Z "/><text fill="#000000" font-family="sans-serif" font-size="14" lengthAdjust="spacingAndGlyphs" textLength="67" x="84.75" y="146.9951">DateTime</text><text fill="#000000" font-family="sans-serif" font-size="10" lengthAdjust="spacingAndGlyphs" textLength="83" x="76.75" y="159.5791">FluxBus.provided</text><line style="stroke: #A80036; stroke-width: 1.5;" x1="8" x2="196" y1="166.9375" y2="166.9375"/><rect fill="none" height="6" style="stroke: #C82930; stroke-width: 1.0;" width="6" x="15" y="174.9375"/><text fill="#000000" font-family="sans-serif" font-size="11" lengthAdjust="spacingAndGlyphs" textLength="47" x="27" y="181.1479">year: int</text><rect fill="none" height="6" style="stroke: #C82930; stroke-width: 1.0;" width="6" x="15" y="187.7422"/><text fill="#000000" font-family="sans-serif" font-size="11" lengthAdjust="spacingAndGlyphs" textLength="58" x="27" y="193.9526">month: int</text><rect fill="none" height="6" style="stroke: #C82930; stroke-width: 1.0;" width="6" x="15" y="200.5469"/><text fill="#000000" font-family="sans-serif" font-size="11" lengthAdjust="spacingAndGlyphs" textLength="42" x="27" y="206.7573">day: int</text><rect fill="none" height="6" style="stroke: #C82930; stroke-width: 1.0;" width="6" x="15" y="213.3516"/><text fill="#000000" font-family="sans-serif" font-size="11" lengthAdjust="spacingAndGlyphs" textLength="48" x="27" y="219.562">hour: int</text><rect fill="none" height="6" style="stroke: #C82930; stroke-width: 1.0;" width="6" x="15" y="226.1563"/><text fill="#000000" font-family="sans-serif" font-size="11" lengthAdjust="spacingAndGlyphs" textLength="43" x="27" y="232.3667">min: int</text><line style="stroke: #A80036; stroke-width: 1.5;" x1="8" x2="196" y1="238.9609" y2="238.9609"/><ellipse cx="18" cy="249.9609" fill="#84BE84" rx="3" ry="3" style="stroke: #038048; stroke-width: 1.0;"/><text fill="#000000" font-family="sans-serif" font-size="11" lengthAdjust="spacingAndGlyphs" textLength="116" x="27" y="253.1714">DateTime(DateTime)</text><ellipse cx="18" cy="262.7656" fill="#84BE84" rx="3" ry="3" style="stroke: #038048; stroke-width: 1.0;"/><text fill="#000000" font-family="sans-serif" font-size="11" lengthAdjust="spacingAndGlyphs" textLength="164" x="27" y="265.9761">DateTime(int, int, int, int, int)</text><ellipse cx="18" cy="275.5703" fill="#84BE84" rx="3" ry="3" style="stroke: #038048; stroke-width: 1.0;"/><text fill="#000000" font-family="sans-serif" font-size="11" lengthAdjust="spacingAndGlyphs" textLength="148" x="27" y="278.7808">compareTo(DateTime): int</text><ellipse cx="18" cy="288.375" fill="#84BE84" rx="3" ry="3" style="stroke: #038048; stroke-width: 1.0;"/><text fill="#000000" font-family="sans-serif" font-size="11" lengthAdjust="spacingAndGlyphs" textLength="101" x="27" y="291.5854">timestamp(): long</text></a><!--MD5=[008d82c49f85b4d489e041917c99c847]
class java.lang.Comparable--><rect codeLine="17" fill="#FEFECE" filter="url(#f59kemlhlkkaf)" height="58.7422" id="java.lang.Comparable" style="stroke: #A80036; stroke-width: 1.5;" width="178" x="13" y="10"/><ellipse cx="28" cy="28.9688" fill="#B4A7E5" rx="11" ry="11" style="stroke: #A80036; stroke-width: 1.0;"/><path d="M23.9219,24.7344 L23.9219,22.5781 L31.3125,22.5781 L31.3125,24.7344 L28.8438,24.7344 L28.8438,32.8125 L31.3125,32.8125 L31.3125,34.9688 L23.9219,34.9688 L23.9219,32.8125 L26.3906,32.8125 L26.3906,24.7344 L23.9219,24.7344 Z "/><text fill="#000000" font-family="sans-serif" font-size="14" font-style="italic" lengthAdjust="spacingAndGlyphs" textLength="83" x="42" y="27.9951">Comparable</text><text fill="#000000" font-family="sans-serif" font-size="10" font-style="italic" lengthAdjust="spacingAndGlyphs" textLength="45" x="61" y="40.5791">java.lang</text><rect fill="#FFFFFF" height="15.9688" style="stroke: #000000; stroke-width: 1.0; stroke-dasharray: 2.0,2.0;" width="61" x="133" y="7"/><text fill="#000000" font-family="sans-serif" font-size="12" font-style="italic" lengthAdjust="spacingAndGlyphs" textLength="59" x="134" y="19.1387">DateTime</text><line style="stroke: #A80036; stroke-width: 1.5;" x1="14" x2="190" y1="47.9375" y2="47.9375"/><ellipse cx="24" cy="58.9375" fill="#84BE84" rx="3" ry="3" style="stroke: #038048; stroke-width: 1.0;"/><text fill="#000000" font-family="sans-serif" font-size="11" font-style="italic" lengthAdjust="spacingAndGlyphs" textLength="148" x="33" y="62.1479">compareTo(DateTime): int</text><!--MD5=[9148571368482e1b4a716217953785b8]
reverse link java.lang.Comparable to FluxBus.provided.DateTime--><path codeLine="21" d="M102,89.67 C102,101.88 102,115.31 102,128.68 " fill="none" id="java.lang.Comparable-backto-FluxBus.provided.DateTime" style="stroke: #A80036; stroke-width: 1.0; stroke-dasharray: 7.0,7.0;"/><polygon fill="none" points="95,89.29,102,69.29,109,89.29,95,89.29" style="stroke: #A80036; stroke-width: 1.0;"/><text fill="#888888" font-family="sans-serif" font-size="10" lengthAdjust="spacingAndGlyphs" textLength="192" x="3" y="320.4619">UMLDoclet 2.0.12, PlantUML 1.2020.16</text><!--MD5=[7f8f8df4233fdc0ffeacd3217aa528c4]
@startuml
    set namespaceSeparator none
    hide empty fields
    hide empty methods

    class "<size:14>DateTime\n<size:10>FluxBus.provided" as FluxBus.provided.DateTime [[DateTime.html]] {
        -year: int
        -month: int
        -day: int
        -hour: int
        -min: int
        +DateTime(DateTime)
        +DateTime(int, int, int, int, int)
        +compareTo(DateTime): int
        +timestamp(): long
    }

    interface "<size:14>Comparable\n<size:10>java.lang" as java.lang.Comparable<DateTime> {
        {abstract} +compareTo(DateTime): int
    }

    java.lang.Comparable <|.. FluxBus.provided.DateTime

    center footer UMLDoclet 2.0.12, PlantUML 1.2020.16
@enduml

PlantUML version 1.2020.16(Sun Aug 23 22:20:43 CEST 2020)
(APACHE source distribution)
Java Runtime: OpenJDK Runtime Environment
JVM: OpenJDK 64-Bit Server VM
Default Encoding: ANSI_X3.4-1968
Language: en
Country: US
--></g></svg>