<?xml version="1.0" encoding="UTF-8" standalone="no"?><svg xmlns="http://www.w3.org/2000/svg" xmlns:xlink="http://www.w3.org/1999/xlink" contentScriptType="application/ecmascript" contentStyleType="text/css" height="384px" preserveAspectRatio="none" style="width:839px;height:384px;" version="1.1" viewBox="0 0 839 384" width="839px" zoomAndPan="magnify"><defs><filter height="300%" id="f59bsib3gwnqs" width="300%" x="-1" y="-1"><feGaussianBlur result="blurOut" stdDeviation="2.0"/><feColorMatrix in="blurOut" result="blurOut2" type="matrix" values="0 0 0 0 0 0 0 0 0 0 0 0 0 0 0 0 0 0 .4 0"/><feOffset dx="4.0" dy="4.0" in="blurOut2" result="blurOut3"/><feBlend in="SourceGraphic" in2="blurOut3" mode="normal"/></filter></defs><g><!--MD5=[d2a7bf4a91a9973fac7b8c181a9a46ba]
cluster FluxBus.provided--><polygon fill="#FFFFFF" filter="url(#f59bsib3gwnqs)" points="16,142,158,142,165,164.2969,817,164.2969,817,356,16,356,16,142" style="stroke: #000000; stroke-width: 1.5;"/><line style="stroke: #000000; stroke-width: 1.5;" x1="16" x2="165" y1="164.2969" y2="164.2969"/><text fill="#000000" font-family="sans-serif" font-size="14" font-weight="bold" lengthAdjust="spacingAndGlyphs" textLength="136" x="20" y="156.9951">FluxBus.provided</text><!--MD5=[aa8f7b917213fcc1c2766e2d59b49067]
cluster java.lang--><polygon fill="#FFFFFF" filter="url(#f59bsib3gwnqs)" points="419,6,494,6,501,28.2969,579,28.2969,579,118,419,118,419,6" style="stroke: #000000; stroke-width: 1.5;"/><line style="stroke: #000000; stroke-width: 1.5;" x1="419" x2="501" y1="28.2969" y2="28.2969"/><text fill="#000000" font-family="sans-serif" font-size="14" font-weight="bold" lengthAdjust="spacingAndGlyphs" textLength="69" x="423" y="20.9951">java.lang</text><!--MD5=[894b71ff506f3970c835592e95bf8c75]
class FluxBus.provided.DateTime--><a href="DateTime.html" target="_top" title="DateTime.html" xlink:actuate="onRequest" xlink:href="DateTime.html" xlink:show="new" xlink:title="DateTime.html" xlink:type="simple"><rect codeLine="3" fill="#FEFECE" filter="url(#f59bsib3gwnqs)" height="163.2422" id="FluxBus.provided.DateTime" style="stroke: #A80036; stroke-width: 1.5;" width="190" x="611" y="177"/><ellipse cx="672.25" cy="193" fill="#ADD1B2" rx="11" ry="11" style="stroke: #A80036; stroke-width: 1.0;"/><path d="M675.2188,198.6406 Q674.6406,198.9375 674,199.0781 Q673.3594,199.2344 672.6563,199.2344 Q670.1563,199.2344 668.8281,197.5938 Q667.5156,195.9375 667.5156,192.8125 Q667.5156,189.6875 668.8281,188.0313 Q670.1563,186.375 672.6563,186.375 Q673.3594,186.375 674,186.5313 Q674.6563,186.6875 675.2188,186.9844 L675.2188,189.7031 Q674.5938,189.125 674,188.8594 Q673.4063,188.5781 672.7813,188.5781 Q671.4375,188.5781 670.75,189.6563 Q670.0625,190.7188 670.0625,192.8125 Q670.0625,194.9063 670.75,195.9844 Q671.4375,197.0469 672.7813,197.0469 Q673.4063,197.0469 674,196.7813 Q674.5938,196.5 675.2188,195.9219 L675.2188,198.6406 Z "/><text fill="#000000" font-family="sans-serif" font-size="12" lengthAdjust="spacingAndGlyphs" textLength="59" x="692.75" y="197.1543">DateTime</text><line style="stroke: #A80036; stroke-width: 1.5;" x1="612" x2="800" y1="209" y2="209"/><rect fill="none" height="6" style="stroke: #C82930; stroke-width: 1.0;" width="6" x="619" y="217"/><text fill="#000000" font-family="sans-serif" font-size="11" lengthAdjust="spacingAndGlyphs" textLength="47" x="631" y="223.2104">year: int</text><rect fill="none" height="6" style="stroke: #C82930; stroke-width: 1.0;" width="6" x="619" y="229.8047"/><text fill="#000000" font-family="sans-serif" font-size="11" lengthAdjust="spacingAndGlyphs" textLength="58" x="631" y="236.0151">month: int</text><rect fill="none" height="6" style="stroke: #C82930; stroke-width: 1.0;" width="6" x="619" y="242.6094"/><text fill="#000000" font-family="sans-serif" font-size="11" lengthAdjust="spacingAndGlyphs" textLength="42" x="631" y="248.8198">day: int</text><rect fill="none" height="6" style="stroke: #C82930; stroke-width: 1.0;" width="6" x="619" y="255.4141"/><text fill="#000000" font-family="sans-serif" font-size="11" lengthAdjust="spacingAndGlyphs" textLength="48" x="631" y="261.6245">hour: int</text><rect fill="none" height="6" style="stroke: #C82930; stroke-width: 1.0;" width="6" x="619" y="268.2188"/><text fill="#000000" font-family="sans-serif" font-size="11" lengthAdjust="spacingAndGlyphs" textLength="43" x="631" y="274.4292">min: int</text><line style="stroke: #A80036; stroke-width: 1.5;" x1="612" x2="800" y1="281.0234" y2="281.0234"/><ellipse cx="622" cy="292.0234" fill="#84BE84" rx="3" ry="3" style="stroke: #038048; stroke-width: 1.0;"/><text fill="#000000" font-family="sans-serif" font-size="11" lengthAdjust="spacingAndGlyphs" textLength="116" x="631" y="295.2339">DateTime(DateTime)</text><ellipse cx="622" cy="304.8281" fill="#84BE84" rx="3" ry="3" style="stroke: #038048; stroke-width: 1.0;"/><text fill="#000000" font-family="sans-serif" font-size="11" lengthAdjust="spacingAndGlyphs" textLength="164" x="631" y="308.0386">DateTime(int, int, int, int, int)</text><ellipse cx="622" cy="317.6328" fill="#84BE84" rx="3" ry="3" style="stroke: #038048; stroke-width: 1.0;"/><text fill="#000000" font-family="sans-serif" font-size="11" lengthAdjust="spacingAndGlyphs" textLength="148" x="631" y="320.8433">compareTo(DateTime): int</text><ellipse cx="622" cy="330.4375" fill="#84BE84" rx="3" ry="3" style="stroke: #038048; stroke-width: 1.0;"/><text fill="#000000" font-family="sans-serif" font-size="11" lengthAdjust="spacingAndGlyphs" textLength="101" x="631" y="333.6479">timestamp(): long</text></a><!--MD5=[f95276854418c0a718b9f69c697f53f0]
class FluxBus.provided.Bus--><a href="Bus.html" target="_top" title="Bus.html" xlink:actuate="onRequest" xlink:href="Bus.html" xlink:show="new" xlink:title="Bus.html" xlink:type="simple"><rect codeLine="15" fill="#FEFECE" filter="url(#f59bsib3gwnqs)" height="112.0234" id="FluxBus.provided.Bus" style="stroke: #A80036; stroke-width: 1.5;" width="152" x="424" y="202.5"/><ellipse cx="484.25" cy="218.5" fill="#ADD1B2" rx="11" ry="11" style="stroke: #A80036; stroke-width: 1.0;"/><path d="M487.2188,224.1406 Q486.6406,224.4375 486,224.5781 Q485.3594,224.7344 484.6563,224.7344 Q482.1563,224.7344 480.8281,223.0938 Q479.5156,221.4375 479.5156,218.3125 Q479.5156,215.1875 480.8281,213.5313 Q482.1563,211.875 484.6563,211.875 Q485.3594,211.875 486,212.0313 Q486.6563,212.1875 487.2188,212.4844 L487.2188,215.2031 Q486.5938,214.625 486,214.3594 Q485.4063,214.0781 484.7813,214.0781 Q483.4375,214.0781 482.75,215.1563 Q482.0625,216.2188 482.0625,218.3125 Q482.0625,220.4063 482.75,221.4844 Q483.4375,222.5469 484.7813,222.5469 Q485.4063,222.5469 486,222.2813 Q486.5938,222 487.2188,221.4219 L487.2188,224.1406 Z "/><text fill="#000000" font-family="sans-serif" font-size="12" lengthAdjust="spacingAndGlyphs" textLength="23" x="504.75" y="222.6543">Bus</text><line style="stroke: #A80036; stroke-width: 1.5;" x1="425" x2="575" y1="234.5" y2="234.5"/><rect fill="none" height="6" style="stroke: #C82930; stroke-width: 1.0;" width="6" x="432" y="242.5"/><text fill="#000000" font-family="sans-serif" font-size="11" lengthAdjust="spacingAndGlyphs" textLength="126" x="444" y="248.7104">licenceNumber: String</text><rect fill="none" height="6" style="stroke: #C82930; stroke-width: 1.0;" width="6" x="432" y="255.3047"/><text fill="#000000" font-family="sans-serif" font-size="11" lengthAdjust="spacingAndGlyphs" textLength="68" x="444" y="261.5151">capacity: int</text><line style="stroke: #A80036; stroke-width: 1.5;" x1="425" x2="575" y1="268.1094" y2="268.1094"/><ellipse cx="435" cy="279.1094" fill="#84BE84" rx="3" ry="3" style="stroke: #038048; stroke-width: 1.0;"/><text fill="#000000" font-family="sans-serif" font-size="11" lengthAdjust="spacingAndGlyphs" textLength="86" x="444" y="282.3198">Bus(String, int)</text><ellipse cx="435" cy="291.9141" fill="#84BE84" rx="3" ry="3" style="stroke: #038048; stroke-width: 1.0;"/><text fill="#000000" font-family="sans-serif" font-size="11" lengthAdjust="spacingAndGlyphs" textLength="52" x="444" y="295.1245">Bus(Bus)</text><ellipse cx="435" cy="304.7188" fill="#84BE84" rx="3" ry="3" style="stroke: #038048; stroke-width: 1.0;"/><text fill="#000000" font-family="sans-serif" font-size="11" lengthAdjust="spacingAndGlyphs" textLength="96" x="444" y="307.9292">getCapactiy(): int</text></a><!--MD5=[5b014a7069c739e2bdfc5079d04abfc7]
class FluxBus.provided.Person--><a href="Person.html" target="_top" title="Person.html" xlink:actuate="onRequest" xlink:href="Person.html" xlink:show="new" xlink:title="Person.html" xlink:type="simple"><rect codeLine="23" fill="#FEFECE" filter="url(#f59bsib3gwnqs)" height="124.8281" id="FluxBus.provided.Person" style="stroke: #A80036; stroke-width: 1.5;" width="192" x="197" y="196"/><ellipse cx="266.75" cy="212" fill="#ADD1B2" rx="11" ry="11" style="stroke: #A80036; stroke-width: 1.0;"/><path d="M269.7188,217.6406 Q269.1406,217.9375 268.5,218.0781 Q267.8594,218.2344 267.1563,218.2344 Q264.6563,218.2344 263.3281,216.5938 Q262.0156,214.9375 262.0156,211.8125 Q262.0156,208.6875 263.3281,207.0313 Q264.6563,205.375 267.1563,205.375 Q267.8594,205.375 268.5,205.5313 Q269.1563,205.6875 269.7188,205.9844 L269.7188,208.7031 Q269.0938,208.125 268.5,207.8594 Q267.9063,207.5781 267.2813,207.5781 Q265.9375,207.5781 265.25,208.6563 Q264.5625,209.7188 264.5625,211.8125 Q264.5625,213.9063 265.25,214.9844 Q265.9375,216.0469 267.2813,216.0469 Q267.9063,216.0469 268.5,215.7813 Q269.0938,215.5 269.7188,214.9219 L269.7188,217.6406 Z "/><text fill="#000000" font-family="sans-serif" font-size="12" lengthAdjust="spacingAndGlyphs" textLength="44" x="287.25" y="216.1543">Person</text><line style="stroke: #A80036; stroke-width: 1.5;" x1="198" x2="388" y1="228" y2="228"/><rect fill="none" height="6" style="stroke: #C82930; stroke-width: 1.0;" width="6" x="205" y="236"/><text fill="#000000" font-family="sans-serif" font-size="11" lengthAdjust="spacingAndGlyphs" textLength="104" x="217" y="242.2104">passportID: String</text><rect fill="none" height="6" style="stroke: #C82930; stroke-width: 1.0;" width="6" x="205" y="248.8047"/><text fill="#000000" font-family="sans-serif" font-size="11" lengthAdjust="spacingAndGlyphs" textLength="97" x="217" y="255.0151">firstname: String</text><rect fill="none" height="6" style="stroke: #C82930; stroke-width: 1.0;" width="6" x="205" y="261.6094"/><text fill="#000000" font-family="sans-serif" font-size="11" lengthAdjust="spacingAndGlyphs" textLength="95" x="217" y="267.8198">lastname: String</text><line style="stroke: #A80036; stroke-width: 1.5;" x1="198" x2="388" y1="274.4141" y2="274.4141"/><ellipse cx="208" cy="285.4141" fill="#84BE84" rx="3" ry="3" style="stroke: #038048; stroke-width: 1.0;"/><text fill="#000000" font-family="sans-serif" font-size="11" lengthAdjust="spacingAndGlyphs" textLength="166" x="217" y="288.6245">Person(String, String, String)</text><ellipse cx="208" cy="298.2188" fill="#84BE84" rx="3" ry="3" style="stroke: #038048; stroke-width: 1.0;"/><text fill="#000000" font-family="sans-serif" font-size="11" lengthAdjust="spacingAndGlyphs" textLength="88" x="217" y="301.4292">Person(Person)</text><ellipse cx="208" cy="311.0234" fill="#84BE84" rx="3" ry="3" style="stroke: #038048; stroke-width: 1.0;"/><text fill="#000000" font-family="sans-serif" font-size="11" lengthAdjust="spacingAndGlyphs" textLength="134" x="217" y="314.2339">compareTo(Person): int</text></a><!--MD5=[b505bf8d69b14eb33028c99a84c75100]
class FluxBus.provided.Matcher--><a href="Matcher.html" target="_top" title="Matcher.html" xlink:actuate="onRequest" xlink:href="Matcher.html" xlink:show="new" xlink:title="Matcher.html" xlink:type="simple"><rect codeLine="32" fill="#FEFECE" filter="url(#f59bsib3gwnqs)" height="60.8047" id="FluxBus.provided.Matcher" style="stroke: #A80036; stroke-width: 1.5;" width="129" x="32.5" y="228"/><ellipse cx="63.25" cy="244" fill="#B4A7E5" rx="11" ry="11" style="stroke: #A80036; stroke-width: 1.0;"/><path d="M59.1719,239.7656 L59.1719,237.6094 L66.5625,237.6094 L66.5625,239.7656 L64.0938,239.7656 L64.0938,247.8438 L66.5625,247.8438 L66.5625,250 L59.1719,250 L59.1719,247.8438 L61.6406,247.8438 L61.6406,239.7656 L59.1719,239.7656 Z "/><text fill="#000000" font-family="sans-serif" font-size="12" font-style="italic" lengthAdjust="spacingAndGlyphs" textLength="51" x="80.75" y="248.1543">Matcher</text><rect fill="#FFFFFF" height="15.9688" style="stroke: #000000; stroke-width: 1.0; stroke-dasharray: 2.0,2.0;" width="9" x="155.5" y="225"/><text fill="#000000" font-family="sans-serif" font-size="12" font-style="italic" lengthAdjust="spacingAndGlyphs" textLength="7" x="156.5" y="237.1387">T</text><line style="stroke: #A80036; stroke-width: 1.5;" x1="33.5" x2="160.5" y1="260" y2="260"/><line style="stroke: #A80036; stroke-width: 1.5;" x1="33.5" x2="160.5" y1="268" y2="268"/><ellipse cx="43.5" cy="279" fill="#84BE84" rx="3" ry="3" style="stroke: #038048; stroke-width: 1.0;"/><text fill="#000000" font-family="sans-serif" font-size="11" font-style="italic" lengthAdjust="spacingAndGlyphs" textLength="103" x="52.5" y="282.2104">match(T): boolean</text></a><!--MD5=[008d82c49f85b4d489e041917c99c847]
class java.lang.Comparable--><rect codeLine="41" fill="#FEFECE" filter="url(#f59bsib3gwnqs)" height="60.8047" id="java.lang.Comparable" style="stroke: #A80036; stroke-width: 1.5;" width="127" x="435.5" y="41"/><ellipse cx="454.55" cy="57" fill="#B4A7E5" rx="11" ry="11" style="stroke: #A80036; stroke-width: 1.0;"/><path d="M450.4719,52.7656 L450.4719,50.6094 L457.8625,50.6094 L457.8625,52.7656 L455.3938,52.7656 L455.3938,60.8438 L457.8625,60.8438 L457.8625,63 L450.4719,63 L450.4719,60.8438 L452.9406,60.8438 L452.9406,52.7656 L450.4719,52.7656 Z "/><text fill="#000000" font-family="sans-serif" font-size="12" font-style="italic" lengthAdjust="spacingAndGlyphs" textLength="75" x="469.45" y="61.1543">Comparable</text><rect fill="#FFFFFF" height="15.9688" style="stroke: #000000; stroke-width: 1.0; stroke-dasharray: 2.0,2.0;" width="9" x="556.5" y="38"/><text fill="#000000" font-family="sans-serif" font-size="12" font-style="italic" lengthAdjust="spacingAndGlyphs" textLength="7" x="557.5" y="50.1387">T</text><line style="stroke: #A80036; stroke-width: 1.5;" x1="436.5" x2="561.5" y1="73" y2="73"/><line style="stroke: #A80036; stroke-width: 1.5;" x1="436.5" x2="561.5" y1="81" y2="81"/><ellipse cx="446.5" cy="92" fill="#84BE84" rx="3" ry="3" style="stroke: #038048; stroke-width: 1.0;"/><text fill="#000000" font-family="sans-serif" font-size="11" font-style="italic" lengthAdjust="spacingAndGlyphs" textLength="101" x="455.5" y="95.2104">compareTo(T): int</text><!--MD5=[9148571368482e1b4a716217953785b8]
reverse link java.lang.Comparable to FluxBus.provided.DateTime--><path codeLine="36" d="M566.87,113.33 C576.27,119.86 585.58,126.84 594,134 C609.22,146.93 624.37,161.87 638.39,176.78 " fill="none" id="java.lang.Comparable-backto-FluxBus.provided.DateTime" style="stroke: #A80036; stroke-width: 1.0; stroke-dasharray: 7.0,7.0;"/><polygon fill="none" points="562.79,119.02,550.03,102.1,570.56,107.37,562.79,119.02" style="stroke: #A80036; stroke-width: 1.0;"/><!--MD5=[5ccf93ae3c373980bf8e6f315b1dbaa0]
reverse link java.lang.Comparable to FluxBus.provided.Person--><path codeLine="37" d="M433.33,113.6 C424.23,120.09 415.2,126.99 407,134 C385.15,152.68 363.24,175.26 344.55,195.99 " fill="none" id="java.lang.Comparable-backto-FluxBus.provided.Person" style="stroke: #A80036; stroke-width: 1.0; stroke-dasharray: 7.0,7.0;"/><polygon fill="none" points="429.72,107.59,450.17,102.05,437.64,119.14,429.72,107.59" style="stroke: #A80036; stroke-width: 1.0;"/><text fill="#888888" font-family="sans-serif" font-size="10" lengthAdjust="spacingAndGlyphs" textLength="192" x="314.5" y="371.2822">UMLDoclet 2.0.12, PlantUML 1.2020.16</text><!--MD5=[3c86b7914a499afc3d3c544386ec1684]
@startuml
    namespace FluxBus.provided {

        class DateTime [[DateTime.html]] {
            -year: int
            -month: int
            -day: int
            -hour: int
            -min: int
            +DateTime(DateTime)
            +DateTime(int, int, int, int, int)
            +compareTo(DateTime): int
            +timestamp(): long
        }

        class Bus [[Bus.html]] {
            -licenceNumber: String
            -capacity: int
            +Bus(String, int)
            +Bus(Bus)
            +getCapactiy(): int
        }

        class Person [[Person.html]] {
            -passportID: String
            -firstname: String
            -lastname: String
            +Person(String, String, String)
            +Person(Person)
            +compareTo(Person): int
        }

        interface Matcher<T> [[Matcher.html]] {
            {abstract} +match(T): boolean
        }

        java.lang.Comparable <|.. DateTime
        java.lang.Comparable <|.. Person
    }

    namespace java.lang {
        interface Comparable<T> {
            {abstract} +compareTo(T): int
        }
    }

    center footer UMLDoclet 2.0.12, PlantUML 1.2020.16
@enduml

PlantUML version 1.2020.16(Sun Aug 23 22:20:43 CEST 2020)
(APACHE source distribution)
Java Runtime: OpenJDK Runtime Environment
JVM: OpenJDK 64-Bit Server VM
Default Encoding: ANSI_X3.4-1968
Language: en
Country: US
--></g></svg>