<?xml version="1.0" encoding="UTF-8" standalone="no"?><svg xmlns="http://www.w3.org/2000/svg" xmlns:xlink="http://www.w3.org/1999/xlink" contentScriptType="application/ecmascript" contentStyleType="text/css" height="295px" preserveAspectRatio="none" style="width:218px;height:295px;" version="1.1" viewBox="0 0 218 295" width="218px" zoomAndPan="magnify"><defs><filter height="300%" id="fgmt7kegwgl86" width="300%" x="-1" y="-1"><feGaussianBlur result="blurOut" stdDeviation="2.0"/><feColorMatrix in="blurOut" result="blurOut2" type="matrix" values="0 0 0 0 0 0 0 0 0 0 0 0 0 0 0 0 0 0 .4 0"/><feOffset dx="4.0" dy="4.0" in="blurOut2" result="blurOut3"/><feBlend in="SourceGraphic" in2="blurOut3" mode="normal"/></filter></defs><g><!--MD5=[5b014a7069c739e2bdfc5079d04abfc7]
class FluxBus.provided.Person--><a href="Person.html" target="_top" title="Person.html" xlink:actuate="onRequest" xlink:href="Person.html" xlink:show="new" xlink:title="Person.html" xlink:type="simple"><rect codeLine="5" fill="#FEFECE" filter="url(#fgmt7kegwgl86)" height="130.7656" id="FluxBus.provided.Person" style="stroke: #A80036; stroke-width: 1.5;" width="192" x="7" y="129"/><ellipse cx="57.25" cy="147.9688" fill="#ADD1B2" rx="11" ry="11" style="stroke: #A80036; stroke-width: 1.0;"/><path d="M60.2188,153.6094 Q59.6406,153.9063 59,154.0469 Q58.3594,154.2031 57.6563,154.2031 Q55.1563,154.2031 53.8281,152.5625 Q52.5156,150.9063 52.5156,147.7813 Q52.5156,144.6563 53.8281,143 Q55.1563,141.3438 57.6563,141.3438 Q58.3594,141.3438 59,141.5 Q59.6563,141.6563 60.2188,141.9531 L60.2188,144.6719 Q59.5938,144.0938 59,143.8281 Q58.4063,143.5469 57.7813,143.5469 Q56.4375,143.5469 55.75,144.625 Q55.0625,145.6875 55.0625,147.7813 Q55.0625,149.875 55.75,150.9531 Q56.4375,152.0156 57.7813,152.0156 Q58.4063,152.0156 59,151.75 Q59.5938,151.4688 60.2188,150.8906 L60.2188,153.6094 Z "/><text fill="#000000" font-family="sans-serif" font-size="14" lengthAdjust="spacingAndGlyphs" textLength="49" x="94.75" y="146.9951">Person</text><text fill="#000000" font-family="sans-serif" font-size="10" lengthAdjust="spacingAndGlyphs" textLength="83" x="77.75" y="159.5791">FluxBus.provided</text><line style="stroke: #A80036; stroke-width: 1.5;" x1="8" x2="198" y1="166.9375" y2="166.9375"/><rect fill="none" height="6" style="stroke: #C82930; stroke-width: 1.0;" width="6" x="15" y="174.9375"/><text fill="#000000" font-family="sans-serif" font-size="11" lengthAdjust="spacingAndGlyphs" textLength="104" x="27" y="181.1479">passportID: String</text><rect fill="none" height="6" style="stroke: #C82930; stroke-width: 1.0;" width="6" x="15" y="187.7422"/><text fill="#000000" font-family="sans-serif" font-size="11" lengthAdjust="spacingAndGlyphs" textLength="97" x="27" y="193.9526">firstname: String</text><rect fill="none" height="6" style="stroke: #C82930; stroke-width: 1.0;" width="6" x="15" y="200.5469"/><text fill="#000000" font-family="sans-serif" font-size="11" lengthAdjust="spacingAndGlyphs" textLength="95" x="27" y="206.7573">lastname: String</text><line style="stroke: #A80036; stroke-width: 1.5;" x1="8" x2="198" y1="213.3516" y2="213.3516"/><ellipse cx="18" cy="224.3516" fill="#84BE84" rx="3" ry="3" style="stroke: #038048; stroke-width: 1.0;"/><text fill="#000000" font-family="sans-serif" font-size="11" lengthAdjust="spacingAndGlyphs" textLength="166" x="27" y="227.562">Person(String, String, String)</text><ellipse cx="18" cy="237.1563" fill="#84BE84" rx="3" ry="3" style="stroke: #038048; stroke-width: 1.0;"/><text fill="#000000" font-family="sans-serif" font-size="11" lengthAdjust="spacingAndGlyphs" textLength="88" x="27" y="240.3667">Person(Person)</text><ellipse cx="18" cy="249.9609" fill="#84BE84" rx="3" ry="3" style="stroke: #038048; stroke-width: 1.0;"/><text fill="#000000" font-family="sans-serif" font-size="11" lengthAdjust="spacingAndGlyphs" textLength="134" x="27" y="253.1714">compareTo(Person): int</text></a><!--MD5=[008d82c49f85b4d489e041917c99c847]
class java.lang.Comparable--><rect codeLine="14" fill="#FEFECE" filter="url(#fgmt7kegwgl86)" height="58.7422" id="java.lang.Comparable" style="stroke: #A80036; stroke-width: 1.5;" width="161" x="22.5" y="10"/><ellipse cx="37.5" cy="28.9688" fill="#B4A7E5" rx="11" ry="11" style="stroke: #A80036; stroke-width: 1.0;"/><path d="M33.4219,24.7344 L33.4219,22.5781 L40.8125,22.5781 L40.8125,24.7344 L38.3438,24.7344 L38.3438,32.8125 L40.8125,32.8125 L40.8125,34.9688 L33.4219,34.9688 L33.4219,32.8125 L35.8906,32.8125 L35.8906,24.7344 L33.4219,24.7344 Z "/><text fill="#000000" font-family="sans-serif" font-size="14" font-style="italic" lengthAdjust="spacingAndGlyphs" textLength="83" x="51.5" y="27.9951">Comparable</text><text fill="#000000" font-family="sans-serif" font-size="10" font-style="italic" lengthAdjust="spacingAndGlyphs" textLength="45" x="70.5" y="40.5791">java.lang</text><rect fill="#FFFFFF" height="15.9688" style="stroke: #000000; stroke-width: 1.0; stroke-dasharray: 2.0,2.0;" width="44" x="142.5" y="7"/><text fill="#000000" font-family="sans-serif" font-size="12" font-style="italic" lengthAdjust="spacingAndGlyphs" textLength="42" x="143.5" y="19.1387">Person</text><line style="stroke: #A80036; stroke-width: 1.5;" x1="23.5" x2="182.5" y1="47.9375" y2="47.9375"/><ellipse cx="33.5" cy="58.9375" fill="#84BE84" rx="3" ry="3" style="stroke: #038048; stroke-width: 1.0;"/><text fill="#000000" font-family="sans-serif" font-size="11" font-style="italic" lengthAdjust="spacingAndGlyphs" textLength="133" x="42.5" y="62.1479">compareTo(Person): int</text><!--MD5=[5ccf93ae3c373980bf8e6f315b1dbaa0]
reverse link java.lang.Comparable to FluxBus.provided.Person--><path codeLine="18" d="M103,89.53 C103,102 103,115.58 103,128.7 " fill="none" id="java.lang.Comparable-backto-FluxBus.provided.Person" style="stroke: #A80036; stroke-width: 1.0; stroke-dasharray: 7.0,7.0;"/><polygon fill="none" points="96,89.28,103,69.28,110,89.28,96,89.28" style="stroke: #A80036; stroke-width: 1.0;"/><text fill="#888888" font-family="sans-serif" font-size="10" lengthAdjust="spacingAndGlyphs" textLength="192" x="4" y="282.0479">UMLDoclet 2.0.12, PlantUML 1.2020.16</text><!--MD5=[acd531e1d2cac27937124a2d0dabd3f1]
@startuml
    set namespaceSeparator none
    hide empty fields
    hide empty methods

    class "<size:14>Person\n<size:10>FluxBus.provided" as FluxBus.provided.Person [[Person.html]] {
        -passportID: String
        -firstname: String
        -lastname: String
        +Person(String, String, String)
        +Person(Person)
        +compareTo(Person): int
    }

    interface "<size:14>Comparable\n<size:10>java.lang" as java.lang.Comparable<Person> {
        {abstract} +compareTo(Person): int
    }

    java.lang.Comparable <|.. FluxBus.provided.Person

    center footer UMLDoclet 2.0.12, PlantUML 1.2020.16
@enduml

PlantUML version 1.2020.16(Sun Aug 23 22:20:43 CEST 2020)
(APACHE source distribution)
Java Runtime: OpenJDK Runtime Environment
JVM: OpenJDK 64-Bit Server VM
Default Encoding: ANSI_X3.4-1968
Language: en
Country: US
--></g></svg>