<?xml version="1.0" encoding="UTF-8" standalone="no"?><svg xmlns="http://www.w3.org/2000/svg" xmlns:xlink="http://www.w3.org/1999/xlink" contentScriptType="application/ecmascript" contentStyleType="text/css" height="95px" preserveAspectRatio="none" style="width:204px;height:95px;" version="1.1" viewBox="0 0 204 95" width="204px" zoomAndPan="magnify"><defs><filter height="300%" id="frh5tvk22lixt" width="300%" x="-1" y="-1"><feGaussianBlur result="blurOut" stdDeviation="2.0"/><feColorMatrix in="blurOut" result="blurOut2" type="matrix" values="0 0 0 0 0 0 0 0 0 0 0 0 0 0 0 0 0 0 .4 0"/><feOffset dx="4.0" dy="4.0" in="blurOut2" result="blurOut3"/><feBlend in="SourceGraphic" in2="blurOut3" mode="normal"/></filter></defs><g><!--MD5=[9195c6a3e5f2da49e1ec93d438363e94]
class FluxBus.Main--><a href="Main.html" target="_top" title="Main.html" xlink:actuate="onRequest" xlink:href="Main.html" xlink:show="new" xlink:title="Main.html" xlink:type="simple"><rect codeLine="5" fill="#FEFECE" filter="url(#frh5tvk22lixt)" height="58.7422" id="FluxBus.Main" style="stroke: #A80036; stroke-width: 1.5;" width="135" x="28.5" y="7"/><ellipse cx="72.75" cy="25.9688" fill="#ADD1B2" rx="11" ry="11" style="stroke: #A80036; stroke-width: 1.0;"/><path d="M75.7188,31.6094 Q75.1406,31.9063 74.5,32.0469 Q73.8594,32.2031 73.1563,32.2031 Q70.6563,32.2031 69.3281,30.5625 Q68.0156,28.9063 68.0156,25.7813 Q68.0156,22.6563 69.3281,21 Q70.6563,19.3438 73.1563,19.3438 Q73.8594,19.3438 74.5,19.5 Q75.1563,19.6563 75.7188,19.9531 L75.7188,22.6719 Q75.0938,22.0938 74.5,21.8281 Q73.9063,21.5469 73.2813,21.5469 Q71.9375,21.5469 71.25,22.625 Q70.5625,23.6875 70.5625,25.7813 Q70.5625,27.875 71.25,28.9531 Q71.9375,30.0156 73.2813,30.0156 Q73.9063,30.0156 74.5,29.75 Q75.0938,29.4688 75.7188,28.8906 L75.7188,31.6094 Z "/><text fill="#000000" font-family="sans-serif" font-size="14" lengthAdjust="spacingAndGlyphs" textLength="32" x="96.25" y="24.9951">Main</text><text fill="#000000" font-family="sans-serif" font-size="10" lengthAdjust="spacingAndGlyphs" textLength="38" x="93.25" y="37.5791">FluxBus</text><line style="stroke: #A80036; stroke-width: 1.5;" x1="29.5" x2="162.5" y1="44.9375" y2="44.9375"/><ellipse cx="39.5" cy="55.9375" fill="#84BE84" rx="3" ry="3" style="stroke: #038048; stroke-width: 1.0;"/><text fill="#000000" font-family="sans-serif" font-size="11" lengthAdjust="spacingAndGlyphs" text-decoration="underline" textLength="109" x="48.5" y="59.1479">main(String[]): void</text></a><text fill="#888888" font-family="sans-serif" font-size="10" lengthAdjust="spacingAndGlyphs" textLength="192" x="0" y="82.0244">UMLDoclet 2.0.12, PlantUML 1.2020.16</text><!--MD5=[a99bb80c4df1a57d296f4bd7214e743c]
@startuml
    set namespaceSeparator none
    hide empty fields
    hide empty methods

    class "<size:14>Main\n<size:10>FluxBus" as FluxBus.Main [[Main.html]] {
        {static} +main(String[]): void
    }

    center footer UMLDoclet 2.0.12, PlantUML 1.2020.16
@enduml

PlantUML version 1.2020.16(Sun Aug 23 22:20:43 CEST 2020)
(APACHE source distribution)
Java Runtime: OpenJDK Runtime Environment
JVM: OpenJDK 64-Bit Server VM
Default Encoding: ANSI_X3.4-1968
Language: en
Country: US
--></g></svg>