<?xml version="1.0" encoding="UTF-8" standalone="no"?><svg xmlns="http://www.w3.org/2000/svg" xmlns:xlink="http://www.w3.org/1999/xlink" contentScriptType="application/ecmascript" contentStyleType="text/css" height="146px" preserveAspectRatio="none" style="width:208px;height:146px;" version="1.1" viewBox="0 0 208 146" width="208px" zoomAndPan="magnify"><defs><filter height="300%" id="f1uo7o248ml4mn" width="300%" x="-1" y="-1"><feGaussianBlur result="blurOut" stdDeviation="2.0"/><feColorMatrix in="blurOut" result="blurOut2" type="matrix" values="0 0 0 0 0 0 0 0 0 0 0 0 0 0 0 0 0 0 .4 0"/><feOffset dx="4.0" dy="4.0" in="blurOut2" result="blurOut3"/><feBlend in="SourceGraphic" in2="blurOut3" mode="normal"/></filter></defs><g><!--MD5=[8b8ed534061b03bebc7f61895ed2c1ff]
cluster FluxBus--><polygon fill="#FFFFFF" filter="url(#f1uo7o248ml4mn)" points="18,6,85,6,92,28.2969,186,28.2969,186,118,18,118,18,6" style="stroke: #000000; stroke-width: 1.5;"/><line style="stroke: #000000; stroke-width: 1.5;" x1="18" x2="92" y1="28.2969" y2="28.2969"/><text fill="#000000" font-family="sans-serif" font-size="14" font-weight="bold" lengthAdjust="spacingAndGlyphs" textLength="61" x="22" y="20.9951">FluxBus</text><!--MD5=[9195c6a3e5f2da49e1ec93d438363e94]
class FluxBus.Main--><a href="Main.html" target="_top" title="Main.html" xlink:actuate="onRequest" xlink:href="Main.html" xlink:show="new" xlink:title="Main.html" xlink:type="simple"><rect codeLine="3" fill="#FEFECE" filter="url(#f1uo7o248ml4mn)" height="60.8047" id="FluxBus.Main" style="stroke: #A80036; stroke-width: 1.5;" width="135" x="34.5" y="41"/><ellipse cx="83.25" cy="57" fill="#ADD1B2" rx="11" ry="11" style="stroke: #A80036; stroke-width: 1.0;"/><path d="M86.2188,62.6406 Q85.6406,62.9375 85,63.0781 Q84.3594,63.2344 83.6563,63.2344 Q81.1563,63.2344 79.8281,61.5938 Q78.5156,59.9375 78.5156,56.8125 Q78.5156,53.6875 79.8281,52.0313 Q81.1563,50.375 83.6563,50.375 Q84.3594,50.375 85,50.5313 Q85.6563,50.6875 86.2188,50.9844 L86.2188,53.7031 Q85.5938,53.125 85,52.8594 Q84.4063,52.5781 83.7813,52.5781 Q82.4375,52.5781 81.75,53.6563 Q81.0625,54.7188 81.0625,56.8125 Q81.0625,58.9063 81.75,59.9844 Q82.4375,61.0469 83.7813,61.0469 Q84.4063,61.0469 85,60.7813 Q85.5938,60.5 86.2188,59.9219 L86.2188,62.6406 Z "/><text fill="#000000" font-family="sans-serif" font-size="12" lengthAdjust="spacingAndGlyphs" textLength="29" x="103.75" y="61.1543">Main</text><line style="stroke: #A80036; stroke-width: 1.5;" x1="35.5" x2="168.5" y1="73" y2="73"/><line style="stroke: #A80036; stroke-width: 1.5;" x1="35.5" x2="168.5" y1="81" y2="81"/><ellipse cx="45.5" cy="92" fill="#84BE84" rx="3" ry="3" style="stroke: #038048; stroke-width: 1.0;"/><text fill="#000000" font-family="sans-serif" font-size="11" lengthAdjust="spacingAndGlyphs" text-decoration="underline" textLength="109" x="54.5" y="95.2104">main(String[]): void</text></a><text fill="#888888" font-family="sans-serif" font-size="10" lengthAdjust="spacingAndGlyphs" textLength="192" x="0" y="133.2822">UMLDoclet 2.0.12, PlantUML 1.2020.16</text><!--MD5=[cb78b6f601da15ef1be1ba907825ecb4]
@startuml
    namespace FluxBus {

        class Main [[Main.html]] {
            {static} +main(String[]): void
        }

    }

    center footer UMLDoclet 2.0.12, PlantUML 1.2020.16
@enduml

PlantUML version 1.2020.16(Sun Aug 23 22:20:43 CEST 2020)
(APACHE source distribution)
Java Runtime: OpenJDK Runtime Environment
JVM: OpenJDK 64-Bit Server VM
Default Encoding: ANSI_X3.4-1968
Language: en
Country: US
--></g></svg>